<!-- GENERATED by tools/build_components.py --gen-fp from components/footprints/ — DO NOT EDIT -->
<svg xmlns="http://www.w3.org/2000/svg" width="182.4" height="124" viewBox="0 0 182.4 124" role="img" aria-label="footprint POGO_Resistor_SMD:R_0805_2012Metric">
<rect x="0" y="0" width="182.4" height="124" fill="#141414"/>
<g transform="translate(91.2,62) scale(40)">
<line x1="-0.2271" y1="-0.51" x2="0.2271" y2="-0.51" stroke="#c9d4da" stroke-width="0.12" stroke-linecap="round"/>
<line x1="-0.2271" y1="0.51" x2="0.2271" y2="0.51" stroke="#c9d4da" stroke-width="0.12" stroke-linecap="round"/>
<line x1="-1" y1="-0.625" x2="1" y2="-0.625" stroke="#4a5a66" stroke-width="0.12" stroke-linecap="round"/>
<line x1="1" y1="-0.625" x2="1" y2="0.625" stroke="#4a5a66" stroke-width="0.12" stroke-linecap="round"/>
<line x1="1" y1="0.625" x2="-1" y2="0.625" stroke="#4a5a66" stroke-width="0.12" stroke-linecap="round"/>
<line x1="-1" y1="0.625" x2="-1" y2="-0.625" stroke="#4a5a66" stroke-width="0.12" stroke-linecap="round"/>
<line x1="-1.68" y1="-0.95" x2="1.68" y2="-0.95" stroke="#2a8a5a" stroke-width="0.12" stroke-dasharray="0.4,0.3" stroke-linecap="round"/>
<line x1="1.68" y1="-0.95" x2="1.68" y2="0.95" stroke="#2a8a5a" stroke-width="0.12" stroke-dasharray="0.4,0.3" stroke-linecap="round"/>
<line x1="1.68" y1="0.95" x2="-1.68" y2="0.95" stroke="#2a8a5a" stroke-width="0.12" stroke-dasharray="0.4,0.3" stroke-linecap="round"/>
<line x1="-1.68" y1="0.95" x2="-1.68" y2="-0.95" stroke="#2a8a5a" stroke-width="0.12" stroke-dasharray="0.4,0.3" stroke-linecap="round"/>
<g><rect x="-1.425" y="-0.7" width="1.025" height="1.4" rx="0.1127" fill="#c9892f"/></g>
<text x="-0.9125" y="0" fill="#1a1200" font-size="0.5637" font-family="monospace" text-anchor="middle" dominant-baseline="central">1</text>
<g><rect x="0.4" y="-0.7" width="1.025" height="1.4" rx="0.1127" fill="#c9892f"/></g>
<text x="0.9125" y="0" fill="#1a1200" font-size="0.5637" font-family="monospace" text-anchor="middle" dominant-baseline="central">2</text>
</g></svg>
