<svg xmlns="http://www.w3.org/2000/svg" width="107.6923" height="150" viewBox="0 0 107.6923 150" role="img" aria-label="footprint POGO_Connector_Audio:Jack_3.5mm_QingPu_WQP-PJ398SM_Vertical_CircularHoles">
<rect x="0" y="0" width="107.6923" height="150" fill="#141414"/>
<g transform="translate(53.8462,19.4231) scale(9.6154)">
<circle cx="0" cy="6.48" r="1.5" fill="none" stroke="#4a5a66" stroke-width="0.12"/>
<circle cx="0" cy="6.48" r="1.8" fill="none" stroke="#c9d4da" stroke-width="0.12"/>
<circle cx="0" cy="6.48" r="1.8" fill="none" stroke="#4a5a66" stroke-width="0.12"/>
<line x1="-5" y1="12.98" x2="-5" y2="-1.42" stroke="#2a8a5a" stroke-width="0.12" stroke-dasharray="0.4,0.3" stroke-linecap="round"/>
<line x1="-4.5" y1="12.48" x2="-4.5" y2="2.08" stroke="#4a5a66" stroke-width="0.12" stroke-linecap="round"/>
<line x1="-4.5" y1="1.98" x2="-4.5" y2="12.48" stroke="#c9d4da" stroke-width="0.12" stroke-linecap="round"/>
<line x1="4.5" y1="1.98" x2="4.5" y2="12.48" stroke="#c9d4da" stroke-width="0.12" stroke-linecap="round"/>
<line x1="0.09" y1="7.96" x2="1.48" y2="6.57" stroke="#4a5a66" stroke-width="0.12" stroke-linecap="round"/>
<line x1="-0.58" y1="7.83" x2="1.36" y2="5.89" stroke="#4a5a66" stroke-width="0.12" stroke-linecap="round"/>
<line x1="-1.07" y1="7.49" x2="1.01" y2="5.41" stroke="#4a5a66" stroke-width="0.12" stroke-linecap="round"/>
<line x1="-1.42" y1="6.875" x2="0.4" y2="5.06" stroke="#4a5a66" stroke-width="0.12" stroke-linecap="round"/>
<line x1="-1.41" y1="6.02" x2="-0.46" y2="5.07" stroke="#4a5a66" stroke-width="0.12" stroke-linecap="round"/>
<line x1="4.5" y1="12.48" x2="0.5" y2="12.48" stroke="#c9d4da" stroke-width="0.12" stroke-linecap="round"/>
<line x1="-0.5" y1="12.48" x2="-4.5" y2="12.48" stroke="#c9d4da" stroke-width="0.12" stroke-linecap="round"/>
<line x1="4.5" y1="1.98" x2="0.35" y2="1.98" stroke="#c9d4da" stroke-width="0.12" stroke-linecap="round"/>
<line x1="-0.35" y1="1.98" x2="-4.5" y2="1.98" stroke="#c9d4da" stroke-width="0.12" stroke-linecap="round"/>
<line x1="-1.06" y1="-1" x2="-1.06" y2="-0.2" stroke="#c9d4da" stroke-width="0.12" stroke-linecap="round"/>
<line x1="-1.06" y1="-1" x2="-0.2" y2="-1" stroke="#c9d4da" stroke-width="0.12" stroke-linecap="round"/>
<line x1="4.5" y1="12.48" x2="4.5" y2="2.08" stroke="#4a5a66" stroke-width="0.12" stroke-linecap="round"/>
<line x1="4.5" y1="12.48" x2="-4.5" y2="12.48" stroke="#4a5a66" stroke-width="0.12" stroke-linecap="round"/>
<line x1="5" y1="12.98" x2="5" y2="-1.42" stroke="#2a8a5a" stroke-width="0.12" stroke-dasharray="0.4,0.3" stroke-linecap="round"/>
<line x1="5" y1="12.98" x2="-5" y2="12.98" stroke="#2a8a5a" stroke-width="0.12" stroke-dasharray="0.4,0.3" stroke-linecap="round"/>
<line x1="5" y1="-1.42" x2="-5" y2="-1.42" stroke="#2a8a5a" stroke-width="0.12" stroke-dasharray="0.4,0.3" stroke-linecap="round"/>
<line x1="4.5" y1="2.03" x2="-4.5" y2="2.03" stroke="#4a5a66" stroke-width="0.12" stroke-linecap="round"/>
<line x1="0" y1="0" x2="0" y2="2.03" stroke="#4a5a66" stroke-width="0.12" stroke-linecap="round"/>
<g transform="rotate(180 0 3.1)"><circle cx="0" cy="3.1" r="1.065" fill="#c9892f"/></g>
<circle cx="0" cy="3.1" r="0.71" fill="#0d0d0d"/>
<text x="0" y="3.1" fill="#1a1200" font-size="1.1715" font-family="monospace" text-anchor="middle" dominant-baseline="central">TN</text>
<g transform="rotate(180 0 0)"><rect x="-0.965" y="-0.915" width="1.93" height="1.83" rx="0" fill="#c9892f"/></g>
<circle cx="0" cy="0" r="0.61" fill="#0d0d0d"/>
<text x="0" y="0" fill="#1a1200" font-size="1.0065" font-family="monospace" text-anchor="middle" dominant-baseline="central">S</text>
<g transform="rotate(180 0 11.4)"><circle cx="0" cy="11.4" r="1.065" fill="#c9892f"/></g>
<circle cx="0" cy="11.4" r="0.715" fill="#0d0d0d"/>
<text x="0" y="11.4" fill="#1a1200" font-size="1.1715" font-family="monospace" text-anchor="middle" dominant-baseline="central">T</text>
</g></svg>
