<!-- GENERATED by tools/build_components.py --gen-fp from components/footprints/ — DO NOT EDIT -->
<svg xmlns="http://www.w3.org/2000/svg" width="111.2069" height="150" viewBox="0 0 111.2069 150" role="img" aria-label="footprint POGO_Package_SO:SOIC-16_3.9x9.9mm_P1.27mm">
<rect x="0" y="0" width="111.2069" height="150" fill="#141414"/>
<g transform="translate(55.6034,75) scale(12.931)">
<line x1="0" y1="5.06" x2="1.95" y2="5.06" stroke="#c9d4da" stroke-width="0.12" stroke-linecap="round"/>
<line x1="0" y1="5.06" x2="-1.95" y2="5.06" stroke="#c9d4da" stroke-width="0.12" stroke-linecap="round"/>
<line x1="0" y1="-5.06" x2="1.95" y2="-5.06" stroke="#c9d4da" stroke-width="0.12" stroke-linecap="round"/>
<line x1="0" y1="-5.06" x2="-3.45" y2="-5.06" stroke="#c9d4da" stroke-width="0.12" stroke-linecap="round"/>
<line x1="-0.975" y1="-4.95" x2="1.95" y2="-4.95" stroke="#4a5a66" stroke-width="0.12" stroke-linecap="round"/>
<line x1="1.95" y1="-4.95" x2="1.95" y2="4.95" stroke="#4a5a66" stroke-width="0.12" stroke-linecap="round"/>
<line x1="1.95" y1="4.95" x2="-1.95" y2="4.95" stroke="#4a5a66" stroke-width="0.12" stroke-linecap="round"/>
<line x1="-1.95" y1="4.95" x2="-1.95" y2="-3.975" stroke="#4a5a66" stroke-width="0.12" stroke-linecap="round"/>
<line x1="-1.95" y1="-3.975" x2="-0.975" y2="-4.95" stroke="#4a5a66" stroke-width="0.12" stroke-linecap="round"/>
<line x1="-3.7" y1="-5.2" x2="-3.7" y2="5.2" stroke="#2a8a5a" stroke-width="0.12" stroke-dasharray="0.4,0.3" stroke-linecap="round"/>
<line x1="-3.7" y1="5.2" x2="3.7" y2="5.2" stroke="#2a8a5a" stroke-width="0.12" stroke-dasharray="0.4,0.3" stroke-linecap="round"/>
<line x1="3.7" y1="5.2" x2="3.7" y2="-5.2" stroke="#2a8a5a" stroke-width="0.12" stroke-dasharray="0.4,0.3" stroke-linecap="round"/>
<line x1="3.7" y1="-5.2" x2="-3.7" y2="-5.2" stroke="#2a8a5a" stroke-width="0.12" stroke-dasharray="0.4,0.3" stroke-linecap="round"/>
<g><rect x="-3.45" y="-4.745" width="1.95" height="0.6" rx="0.066" fill="#c9892f"/></g>
<text x="-2.475" y="-4.445" fill="#1a1200" font-size="0.5" font-family="monospace" text-anchor="middle" dominant-baseline="central">1</text>
<g><rect x="-3.45" y="-3.475" width="1.95" height="0.6" rx="0.066" fill="#c9892f"/></g>
<text x="-2.475" y="-3.175" fill="#1a1200" font-size="0.5" font-family="monospace" text-anchor="middle" dominant-baseline="central">2</text>
<g><rect x="-3.45" y="-2.205" width="1.95" height="0.6" rx="0.066" fill="#c9892f"/></g>
<text x="-2.475" y="-1.905" fill="#1a1200" font-size="0.5" font-family="monospace" text-anchor="middle" dominant-baseline="central">3</text>
<g><rect x="-3.45" y="-0.935" width="1.95" height="0.6" rx="0.066" fill="#c9892f"/></g>
<text x="-2.475" y="-0.635" fill="#1a1200" font-size="0.5" font-family="monospace" text-anchor="middle" dominant-baseline="central">4</text>
<g><rect x="-3.45" y="0.335" width="1.95" height="0.6" rx="0.066" fill="#c9892f"/></g>
<text x="-2.475" y="0.635" fill="#1a1200" font-size="0.5" font-family="monospace" text-anchor="middle" dominant-baseline="central">5</text>
<g><rect x="-3.45" y="1.605" width="1.95" height="0.6" rx="0.066" fill="#c9892f"/></g>
<text x="-2.475" y="1.905" fill="#1a1200" font-size="0.5" font-family="monospace" text-anchor="middle" dominant-baseline="central">6</text>
<g><rect x="-3.45" y="2.875" width="1.95" height="0.6" rx="0.066" fill="#c9892f"/></g>
<text x="-2.475" y="3.175" fill="#1a1200" font-size="0.5" font-family="monospace" text-anchor="middle" dominant-baseline="central">7</text>
<g><rect x="-3.45" y="4.145" width="1.95" height="0.6" rx="0.066" fill="#c9892f"/></g>
<text x="-2.475" y="4.445" fill="#1a1200" font-size="0.5" font-family="monospace" text-anchor="middle" dominant-baseline="central">8</text>
<g><rect x="1.5" y="4.145" width="1.95" height="0.6" rx="0.066" fill="#c9892f"/></g>
<text x="2.475" y="4.445" fill="#1a1200" font-size="0.5" font-family="monospace" text-anchor="middle" dominant-baseline="central">9</text>
<g><rect x="1.5" y="2.875" width="1.95" height="0.6" rx="0.066" fill="#c9892f"/></g>
<text x="2.475" y="3.175" fill="#1a1200" font-size="0.5" font-family="monospace" text-anchor="middle" dominant-baseline="central">10</text>
<g><rect x="1.5" y="1.605" width="1.95" height="0.6" rx="0.066" fill="#c9892f"/></g>
<text x="2.475" y="1.905" fill="#1a1200" font-size="0.5" font-family="monospace" text-anchor="middle" dominant-baseline="central">11</text>
<g><rect x="1.5" y="0.335" width="1.95" height="0.6" rx="0.066" fill="#c9892f"/></g>
<text x="2.475" y="0.635" fill="#1a1200" font-size="0.5" font-family="monospace" text-anchor="middle" dominant-baseline="central">12</text>
<g><rect x="1.5" y="-0.935" width="1.95" height="0.6" rx="0.066" fill="#c9892f"/></g>
<text x="2.475" y="-0.635" fill="#1a1200" font-size="0.5" font-family="monospace" text-anchor="middle" dominant-baseline="central">13</text>
<g><rect x="1.5" y="-2.205" width="1.95" height="0.6" rx="0.066" fill="#c9892f"/></g>
<text x="2.475" y="-1.905" fill="#1a1200" font-size="0.5" font-family="monospace" text-anchor="middle" dominant-baseline="central">14</text>
<g><rect x="1.5" y="-3.475" width="1.95" height="0.6" rx="0.066" fill="#c9892f"/></g>
<text x="2.475" y="-3.175" fill="#1a1200" font-size="0.5" font-family="monospace" text-anchor="middle" dominant-baseline="central">15</text>
<g><rect x="1.5" y="-4.745" width="1.95" height="0.6" rx="0.066" fill="#c9892f"/></g>
<text x="2.475" y="-4.445" fill="#1a1200" font-size="0.5" font-family="monospace" text-anchor="middle" dominant-baseline="central">16</text>
</g></svg>
