<!-- GENERATED by tools/build_components.py --gen-fp from components/footprints/ — DO NOT EDIT -->
<svg xmlns="http://www.w3.org/2000/svg" width="123.2342" height="150" viewBox="0 0 123.2342 150" role="img" aria-label="footprint POGO_Potentiometer_THT:Potentiometer_Bourns_3296W_Vertical">
<rect x="0" y="0" width="123.2342" height="150" fill="#141414"/>
<g transform="translate(61.6171,28.5316) scale(18.5874)">
<circle cx="0" cy="2.5" r="1.5" fill="none" stroke="#4a5a66" stroke-width="0.12"/>
<line x1="-2.415" y1="-0.635" x2="2.415" y2="-0.635" stroke="#4a5a66" stroke-width="0.12" stroke-linecap="round"/>
<line x1="2.415" y1="-0.635" x2="2.415" y2="5.635" stroke="#4a5a66" stroke-width="0.12" stroke-linecap="round"/>
<line x1="2.415" y1="5.635" x2="-2.415" y2="5.635" stroke="#4a5a66" stroke-width="0.12" stroke-linecap="round"/>
<line x1="-2.415" y1="5.635" x2="-2.415" y2="-0.635" stroke="#4a5a66" stroke-width="0.12" stroke-linecap="round"/>
<line x1="-2.415" y1="-0.635" x2="-1.415" y2="-0.635" stroke="#c9d4da" stroke-width="0.12" stroke-linecap="round"/>
<line x1="-2.415" y1="-0.635" x2="-2.415" y2="0.365" stroke="#c9d4da" stroke-width="0.12" stroke-linecap="round"/>
<line x1="-2.715" y1="-0.935" x2="2.715" y2="-0.935" stroke="#c9d4da" stroke-width="0.12" stroke-linecap="round"/>
<line x1="2.715" y1="-0.935" x2="2.715" y2="5.935" stroke="#c9d4da" stroke-width="0.12" stroke-linecap="round"/>
<line x1="2.715" y1="5.935" x2="-2.715" y2="5.935" stroke="#c9d4da" stroke-width="0.12" stroke-linecap="round"/>
<line x1="-2.715" y1="5.935" x2="-2.715" y2="-0.935" stroke="#c9d4da" stroke-width="0.12" stroke-linecap="round"/>
<line x1="-2.665" y1="-0.885" x2="2.665" y2="-0.885" stroke="#2a8a5a" stroke-width="0.12" stroke-dasharray="0.4,0.3" stroke-linecap="round"/>
<line x1="2.665" y1="-0.885" x2="2.665" y2="5.885" stroke="#2a8a5a" stroke-width="0.12" stroke-dasharray="0.4,0.3" stroke-linecap="round"/>
<line x1="2.665" y1="5.885" x2="-2.665" y2="5.885" stroke="#2a8a5a" stroke-width="0.12" stroke-dasharray="0.4,0.3" stroke-linecap="round"/>
<line x1="-2.665" y1="5.885" x2="-2.665" y2="-0.885" stroke="#2a8a5a" stroke-width="0.12" stroke-dasharray="0.4,0.3" stroke-linecap="round"/>
<g><circle cx="0" cy="0" r="0.75" fill="#c9892f"/></g>
<circle cx="0" cy="0" r="0.4" fill="#0d0d0d"/>
<text x="0" y="0" fill="#1a1200" font-size="0.825" font-family="monospace" text-anchor="middle" dominant-baseline="central">1</text>
<g><circle cx="0" cy="2.5" r="0.75" fill="#c9892f"/></g>
<circle cx="0" cy="2.5" r="0.4" fill="#0d0d0d"/>
<text x="0" y="2.5" fill="#1a1200" font-size="0.825" font-family="monospace" text-anchor="middle" dominant-baseline="central">2</text>
<g><circle cx="0" cy="5" r="0.75" fill="#c9892f"/></g>
<circle cx="0" cy="5" r="0.4" fill="#0d0d0d"/>
<text x="0" y="5" fill="#1a1200" font-size="0.825" font-family="monospace" text-anchor="middle" dominant-baseline="central">3</text>
</g></svg>
