<svg xmlns="http://www.w3.org/2000/svg" width="210" height="108.3871" viewBox="0 0 210 108.3871" role="img" aria-label="footprint POGO_Diode_SMD:D_SOD-123">
<rect x="0" y="0" width="210" height="108.3871" fill="#141414"/>
<g transform="translate(105,54.1935) scale(33.871)">
<line x1="-1.4" y1="-0.85" x2="1.4" y2="-0.85" stroke="#4a5a66" stroke-width="0.12" stroke-linecap="round"/>
<line x1="1.4" y1="-0.85" x2="1.4" y2="0.85" stroke="#4a5a66" stroke-width="0.12" stroke-linecap="round"/>
<line x1="1.4" y1="0.85" x2="-1.4" y2="0.85" stroke="#4a5a66" stroke-width="0.12" stroke-linecap="round"/>
<line x1="-1.4" y1="0.85" x2="-1.4" y2="-0.85" stroke="#4a5a66" stroke-width="0.12" stroke-linecap="round"/>
<line x1="0.7" y1="-0.85" x2="0.7" y2="0.85" stroke="#4a5a66" stroke-width="0.12" stroke-linecap="round"/>
<line x1="-2.5" y1="-1" x2="2.5" y2="-1" stroke="#2a8a5a" stroke-width="0.12" stroke-dasharray="0.4,0.3" stroke-linecap="round"/>
<line x1="2.5" y1="-1" x2="2.5" y2="1" stroke="#2a8a5a" stroke-width="0.12" stroke-dasharray="0.4,0.3" stroke-linecap="round"/>
<line x1="2.5" y1="1" x2="-2.5" y2="1" stroke="#2a8a5a" stroke-width="0.12" stroke-dasharray="0.4,0.3" stroke-linecap="round"/>
<line x1="-2.5" y1="1" x2="-2.5" y2="-1" stroke="#2a8a5a" stroke-width="0.12" stroke-dasharray="0.4,0.3" stroke-linecap="round"/>
<line x1="1.3" y1="-1" x2="-1.3" y2="-1" stroke="#c9d4da" stroke-width="0.12" stroke-linecap="round"/>
<line x1="1.3" y1="1" x2="-1.3" y2="1" stroke="#c9d4da" stroke-width="0.12" stroke-linecap="round"/>
<line x1="-1.8" y1="-1" x2="-1.8" y2="1" stroke="#c9d4da" stroke-width="0.12" stroke-linecap="round"/>
<g><rect x="1.05" y="-0.65" width="1.2" height="1.3" rx="0.132" fill="#c9892f"/></g>
<text x="1.65" y="0" fill="#1a1200" font-size="0.66" font-family="monospace" text-anchor="middle" dominant-baseline="central">A</text>
<g><rect x="-2.25" y="-0.65" width="1.2" height="1.3" rx="0.132" fill="#c9892f"/></g>
<text x="-1.65" y="0" fill="#1a1200" font-size="0.66" font-family="monospace" text-anchor="middle" dominant-baseline="central">K</text>
</g></svg>
