<!-- GENERATED by tools/build_components.py --gen-fp from components/footprints/ — DO NOT EDIT -->
<svg xmlns="http://www.w3.org/2000/svg" width="67.2" height="199.2" viewBox="0 0 67.2 199.2" role="img" aria-label="footprint POGO_Potentiometer_THT:Potentiometer_Alps_RS4515N_Vertical_15mm">
<rect x="0" y="0" width="67.2" height="199.2" fill="#141414"/>
<g transform="translate(33.6,99.6) scale(6)">
<line x1="-4" y1="-15" x2="4" y2="-15" stroke="#c9d4da" stroke-width="0.12" stroke-linecap="round"/>
<line x1="4" y1="-15" x2="4" y2="15" stroke="#c9d4da" stroke-width="0.12" stroke-linecap="round"/>
<line x1="4" y1="15" x2="-4" y2="15" stroke="#c9d4da" stroke-width="0.12" stroke-linecap="round"/>
<line x1="-4" y1="15" x2="-4" y2="-15" stroke="#c9d4da" stroke-width="0.12" stroke-linecap="round"/>
<line x1="-4" y1="-15" x2="4" y2="-15" stroke="#4a5a66" stroke-width="0.12" stroke-linecap="round"/>
<line x1="4" y1="-15" x2="4" y2="15" stroke="#4a5a66" stroke-width="0.12" stroke-linecap="round"/>
<line x1="4" y1="15" x2="-4" y2="15" stroke="#4a5a66" stroke-width="0.12" stroke-linecap="round"/>
<line x1="-4" y1="15" x2="-4" y2="-15" stroke="#4a5a66" stroke-width="0.12" stroke-linecap="round"/>
<line x1="0" y1="-9" x2="0" y2="9" stroke="#4a5a66" stroke-width="0.12" stroke-linecap="round"/>
<line x1="0" y1="9" x2="-0.5" y2="8" stroke="#4a5a66" stroke-width="0.12" stroke-linecap="round"/>
<line x1="0" y1="9" x2="0.5" y2="8" stroke="#4a5a66" stroke-width="0.12" stroke-linecap="round"/>
<line x1="-5" y1="-16" x2="5" y2="-16" stroke="#2a8a5a" stroke-width="0.12" stroke-dasharray="0.4,0.3" stroke-linecap="round"/>
<line x1="5" y1="-16" x2="5" y2="16" stroke="#2a8a5a" stroke-width="0.12" stroke-dasharray="0.4,0.3" stroke-linecap="round"/>
<line x1="5" y1="16" x2="-5" y2="16" stroke="#2a8a5a" stroke-width="0.12" stroke-dasharray="0.4,0.3" stroke-linecap="round"/>
<line x1="-5" y1="16" x2="-5" y2="-16" stroke="#2a8a5a" stroke-width="0.12" stroke-dasharray="0.4,0.3" stroke-linecap="round"/>
<g><rect x="-3" y="-11.25" width="2.5" height="2.5" rx="0" fill="#c9892f"/></g>
<circle cx="-1.75" cy="-10" r="0.75" fill="#0d0d0d"/>
<text x="-1.75" y="-10" fill="#1a1200" font-size="1.375" font-family="monospace" text-anchor="middle" dominant-baseline="central">1</text>
<g><rect x="-1" y="-11.25" width="2.5" height="2.5" rx="0.625" fill="#c9892f"/></g>
<circle cx="0.25" cy="-10" r="0.75" fill="#0d0d0d"/>
<text x="0.25" y="-10" fill="#1a1200" font-size="1.375" font-family="monospace" text-anchor="middle" dominant-baseline="central">2</text>
<g><rect x="-3" y="8.75" width="2.5" height="2.5" rx="0.625" fill="#c9892f"/></g>
<circle cx="-1.75" cy="10" r="0.75" fill="#0d0d0d"/>
<text x="-1.75" y="10" fill="#1a1200" font-size="1.375" font-family="monospace" text-anchor="middle" dominant-baseline="central">3</text>
</g></svg>
