<svg xmlns="http://www.w3.org/2000/svg" width="72.6" height="242.04" viewBox="0 0 72.6 242.04" role="img" aria-label="footprint POGO_Connector_IDC:IDC-Header_2x12_P2.54mm_Vertical">
<rect x="0" y="0" width="72.6" height="242.04" fill="#141414"/>
<g transform="translate(31.68,37.2) scale(6)">
<line x1="-3.18" y1="-4.1" x2="-2.18" y2="-5.1" stroke="#4a5a66" stroke-width="0.12" stroke-linecap="round"/>
<line x1="-2.18" y1="-5.1" x2="5.72" y2="-5.1" stroke="#4a5a66" stroke-width="0.12" stroke-linecap="round"/>
<line x1="5.72" y1="-5.1" x2="5.72" y2="33.04" stroke="#4a5a66" stroke-width="0.12" stroke-linecap="round"/>
<line x1="5.72" y1="33.04" x2="-3.18" y2="33.04" stroke="#4a5a66" stroke-width="0.12" stroke-linecap="round"/>
<line x1="-3.18" y1="33.04" x2="-3.18" y2="-4.1" stroke="#4a5a66" stroke-width="0.12" stroke-linecap="round"/>
<line x1="-3.18" y1="11.92" x2="-1.98" y2="11.92" stroke="#4a5a66" stroke-width="0.12" stroke-linecap="round"/>
<line x1="-1.98" y1="11.92" x2="-1.98" y2="-3.91" stroke="#4a5a66" stroke-width="0.12" stroke-linecap="round"/>
<line x1="-1.98" y1="-3.91" x2="4.52" y2="-3.91" stroke="#4a5a66" stroke-width="0.12" stroke-linecap="round"/>
<line x1="4.52" y1="-3.91" x2="4.52" y2="31.85" stroke="#4a5a66" stroke-width="0.12" stroke-linecap="round"/>
<line x1="4.52" y1="31.85" x2="-1.98" y2="31.85" stroke="#4a5a66" stroke-width="0.12" stroke-linecap="round"/>
<line x1="-1.98" y1="31.85" x2="-1.98" y2="16.02" stroke="#4a5a66" stroke-width="0.12" stroke-linecap="round"/>
<line x1="-1.98" y1="16.02" x2="-1.98" y2="16.02" stroke="#4a5a66" stroke-width="0.12" stroke-linecap="round"/>
<line x1="-1.98" y1="16.02" x2="-3.18" y2="16.02" stroke="#4a5a66" stroke-width="0.12" stroke-linecap="round"/>
<line x1="-3.29" y1="-5.21" x2="5.83" y2="-5.21" stroke="#c9d4da" stroke-width="0.12" stroke-linecap="round"/>
<line x1="5.83" y1="-5.21" x2="5.83" y2="33.15" stroke="#c9d4da" stroke-width="0.12" stroke-linecap="round"/>
<line x1="5.83" y1="33.15" x2="-3.29" y2="33.15" stroke="#c9d4da" stroke-width="0.12" stroke-linecap="round"/>
<line x1="-3.29" y1="33.15" x2="-3.29" y2="-5.21" stroke="#c9d4da" stroke-width="0.12" stroke-linecap="round"/>
<line x1="-3.29" y1="11.92" x2="-1.98" y2="11.92" stroke="#c9d4da" stroke-width="0.12" stroke-linecap="round"/>
<line x1="-1.98" y1="11.92" x2="-1.98" y2="-3.91" stroke="#c9d4da" stroke-width="0.12" stroke-linecap="round"/>
<line x1="-1.98" y1="-3.91" x2="4.52" y2="-3.91" stroke="#c9d4da" stroke-width="0.12" stroke-linecap="round"/>
<line x1="4.52" y1="-3.91" x2="4.52" y2="31.85" stroke="#c9d4da" stroke-width="0.12" stroke-linecap="round"/>
<line x1="4.52" y1="31.85" x2="-1.98" y2="31.85" stroke="#c9d4da" stroke-width="0.12" stroke-linecap="round"/>
<line x1="-1.98" y1="31.85" x2="-1.98" y2="16.02" stroke="#c9d4da" stroke-width="0.12" stroke-linecap="round"/>
<line x1="-1.98" y1="16.02" x2="-1.98" y2="16.02" stroke="#c9d4da" stroke-width="0.12" stroke-linecap="round"/>
<line x1="-1.98" y1="16.02" x2="-3.29" y2="16.02" stroke="#c9d4da" stroke-width="0.12" stroke-linecap="round"/>
<line x1="-3.68" y1="0" x2="-4.68" y2="-0.5" stroke="#c9d4da" stroke-width="0.12" stroke-linecap="round"/>
<line x1="-4.68" y1="-0.5" x2="-4.68" y2="0.5" stroke="#c9d4da" stroke-width="0.12" stroke-linecap="round"/>
<line x1="-4.68" y1="0.5" x2="-3.68" y2="0" stroke="#c9d4da" stroke-width="0.12" stroke-linecap="round"/>
<line x1="-3.68" y1="-5.6" x2="-3.68" y2="33.54" stroke="#2a8a5a" stroke-width="0.12" stroke-dasharray="0.4,0.3" stroke-linecap="round"/>
<line x1="-3.68" y1="33.54" x2="6.22" y2="33.54" stroke="#2a8a5a" stroke-width="0.12" stroke-dasharray="0.4,0.3" stroke-linecap="round"/>
<line x1="6.22" y1="33.54" x2="6.22" y2="-5.6" stroke="#2a8a5a" stroke-width="0.12" stroke-dasharray="0.4,0.3" stroke-linecap="round"/>
<line x1="6.22" y1="-5.6" x2="-3.68" y2="-5.6" stroke="#2a8a5a" stroke-width="0.12" stroke-dasharray="0.4,0.3" stroke-linecap="round"/>
<g><rect x="-0.85" y="-0.85" width="1.7" height="1.7" rx="0.187" fill="#c9892f"/></g>
<circle cx="0" cy="0" r="0.5" fill="#0d0d0d"/>
<text x="0" y="0" fill="#1a1200" font-size="0.935" font-family="monospace" text-anchor="middle" dominant-baseline="central">1</text>
<g><circle cx="0" cy="2.54" r="0.85" fill="#c9892f"/></g>
<circle cx="0" cy="2.54" r="0.5" fill="#0d0d0d"/>
<text x="0" y="2.54" fill="#1a1200" font-size="0.935" font-family="monospace" text-anchor="middle" dominant-baseline="central">3</text>
<g><circle cx="0" cy="5.08" r="0.85" fill="#c9892f"/></g>
<circle cx="0" cy="5.08" r="0.5" fill="#0d0d0d"/>
<text x="0" y="5.08" fill="#1a1200" font-size="0.935" font-family="monospace" text-anchor="middle" dominant-baseline="central">5</text>
<g><circle cx="0" cy="7.62" r="0.85" fill="#c9892f"/></g>
<circle cx="0" cy="7.62" r="0.5" fill="#0d0d0d"/>
<text x="0" y="7.62" fill="#1a1200" font-size="0.935" font-family="monospace" text-anchor="middle" dominant-baseline="central">7</text>
<g><circle cx="0" cy="10.16" r="0.85" fill="#c9892f"/></g>
<circle cx="0" cy="10.16" r="0.5" fill="#0d0d0d"/>
<text x="0" y="10.16" fill="#1a1200" font-size="0.935" font-family="monospace" text-anchor="middle" dominant-baseline="central">9</text>
<g><circle cx="0" cy="12.7" r="0.85" fill="#c9892f"/></g>
<circle cx="0" cy="12.7" r="0.5" fill="#0d0d0d"/>
<text x="0" y="12.7" fill="#1a1200" font-size="0.935" font-family="monospace" text-anchor="middle" dominant-baseline="central">11</text>
<g><circle cx="0" cy="15.24" r="0.85" fill="#c9892f"/></g>
<circle cx="0" cy="15.24" r="0.5" fill="#0d0d0d"/>
<text x="0" y="15.24" fill="#1a1200" font-size="0.935" font-family="monospace" text-anchor="middle" dominant-baseline="central">13</text>
<g><circle cx="0" cy="17.78" r="0.85" fill="#c9892f"/></g>
<circle cx="0" cy="17.78" r="0.5" fill="#0d0d0d"/>
<text x="0" y="17.78" fill="#1a1200" font-size="0.935" font-family="monospace" text-anchor="middle" dominant-baseline="central">15</text>
<g><circle cx="0" cy="20.32" r="0.85" fill="#c9892f"/></g>
<circle cx="0" cy="20.32" r="0.5" fill="#0d0d0d"/>
<text x="0" y="20.32" fill="#1a1200" font-size="0.935" font-family="monospace" text-anchor="middle" dominant-baseline="central">17</text>
<g><circle cx="0" cy="22.86" r="0.85" fill="#c9892f"/></g>
<circle cx="0" cy="22.86" r="0.5" fill="#0d0d0d"/>
<text x="0" y="22.86" fill="#1a1200" font-size="0.935" font-family="monospace" text-anchor="middle" dominant-baseline="central">19</text>
<g><circle cx="0" cy="25.4" r="0.85" fill="#c9892f"/></g>
<circle cx="0" cy="25.4" r="0.5" fill="#0d0d0d"/>
<text x="0" y="25.4" fill="#1a1200" font-size="0.935" font-family="monospace" text-anchor="middle" dominant-baseline="central">21</text>
<g><circle cx="0" cy="27.94" r="0.85" fill="#c9892f"/></g>
<circle cx="0" cy="27.94" r="0.5" fill="#0d0d0d"/>
<text x="0" y="27.94" fill="#1a1200" font-size="0.935" font-family="monospace" text-anchor="middle" dominant-baseline="central">23</text>
<g><circle cx="2.54" cy="0" r="0.85" fill="#c9892f"/></g>
<circle cx="2.54" cy="0" r="0.5" fill="#0d0d0d"/>
<text x="2.54" y="0" fill="#1a1200" font-size="0.935" font-family="monospace" text-anchor="middle" dominant-baseline="central">2</text>
<g><circle cx="2.54" cy="2.54" r="0.85" fill="#c9892f"/></g>
<circle cx="2.54" cy="2.54" r="0.5" fill="#0d0d0d"/>
<text x="2.54" y="2.54" fill="#1a1200" font-size="0.935" font-family="monospace" text-anchor="middle" dominant-baseline="central">4</text>
<g><circle cx="2.54" cy="5.08" r="0.85" fill="#c9892f"/></g>
<circle cx="2.54" cy="5.08" r="0.5" fill="#0d0d0d"/>
<text x="2.54" y="5.08" fill="#1a1200" font-size="0.935" font-family="monospace" text-anchor="middle" dominant-baseline="central">6</text>
<g><circle cx="2.54" cy="7.62" r="0.85" fill="#c9892f"/></g>
<circle cx="2.54" cy="7.62" r="0.5" fill="#0d0d0d"/>
<text x="2.54" y="7.62" fill="#1a1200" font-size="0.935" font-family="monospace" text-anchor="middle" dominant-baseline="central">8</text>
<g><circle cx="2.54" cy="10.16" r="0.85" fill="#c9892f"/></g>
<circle cx="2.54" cy="10.16" r="0.5" fill="#0d0d0d"/>
<text x="2.54" y="10.16" fill="#1a1200" font-size="0.935" font-family="monospace" text-anchor="middle" dominant-baseline="central">10</text>
<g><circle cx="2.54" cy="12.7" r="0.85" fill="#c9892f"/></g>
<circle cx="2.54" cy="12.7" r="0.5" fill="#0d0d0d"/>
<text x="2.54" y="12.7" fill="#1a1200" font-size="0.935" font-family="monospace" text-anchor="middle" dominant-baseline="central">12</text>
<g><circle cx="2.54" cy="15.24" r="0.85" fill="#c9892f"/></g>
<circle cx="2.54" cy="15.24" r="0.5" fill="#0d0d0d"/>
<text x="2.54" y="15.24" fill="#1a1200" font-size="0.935" font-family="monospace" text-anchor="middle" dominant-baseline="central">14</text>
<g><circle cx="2.54" cy="17.78" r="0.85" fill="#c9892f"/></g>
<circle cx="2.54" cy="17.78" r="0.5" fill="#0d0d0d"/>
<text x="2.54" y="17.78" fill="#1a1200" font-size="0.935" font-family="monospace" text-anchor="middle" dominant-baseline="central">16</text>
<g><circle cx="2.54" cy="20.32" r="0.85" fill="#c9892f"/></g>
<circle cx="2.54" cy="20.32" r="0.5" fill="#0d0d0d"/>
<text x="2.54" y="20.32" fill="#1a1200" font-size="0.935" font-family="monospace" text-anchor="middle" dominant-baseline="central">18</text>
<g><circle cx="2.54" cy="22.86" r="0.85" fill="#c9892f"/></g>
<circle cx="2.54" cy="22.86" r="0.5" fill="#0d0d0d"/>
<text x="2.54" y="22.86" fill="#1a1200" font-size="0.935" font-family="monospace" text-anchor="middle" dominant-baseline="central">20</text>
<g><circle cx="2.54" cy="25.4" r="0.85" fill="#c9892f"/></g>
<circle cx="2.54" cy="25.4" r="0.5" fill="#0d0d0d"/>
<text x="2.54" y="25.4" fill="#1a1200" font-size="0.935" font-family="monospace" text-anchor="middle" dominant-baseline="central">22</text>
<g><circle cx="2.54" cy="27.94" r="0.85" fill="#c9892f"/></g>
<circle cx="2.54" cy="27.94" r="0.5" fill="#0d0d0d"/>
<text x="2.54" y="27.94" fill="#1a1200" font-size="0.935" font-family="monospace" text-anchor="middle" dominant-baseline="central">24</text>
</g></svg>
