<!-- GENERATED by tools/build_components.py --gen-fp from components/footprints/ — DO NOT EDIT -->
<svg xmlns="http://www.w3.org/2000/svg" width="210" height="140" viewBox="0 0 210 140" role="img" aria-label="footprint POGO_Potentiometer_SMD:Potentiometer_Bourns_3224W">
<rect x="0" y="0" width="210" height="140" fill="#141414"/>
<g transform="translate(105,70) scale(21.875)">
<line x1="-2.4" y1="-2.3" x2="2.4" y2="-2.3" stroke="#4a5a66" stroke-width="0.12" stroke-linecap="round"/>
<line x1="2.4" y1="-2.3" x2="2.4" y2="2.3" stroke="#4a5a66" stroke-width="0.12" stroke-linecap="round"/>
<line x1="2.4" y1="2.3" x2="-2.4" y2="2.3" stroke="#4a5a66" stroke-width="0.12" stroke-linecap="round"/>
<line x1="-2.4" y1="2.3" x2="-2.4" y2="-2.3" stroke="#4a5a66" stroke-width="0.12" stroke-linecap="round"/>
<line x1="-4.2" y1="-2.6" x2="4.2" y2="-2.6" stroke="#2a8a5a" stroke-width="0.12" stroke-dasharray="0.4,0.3" stroke-linecap="round"/>
<line x1="4.2" y1="-2.6" x2="4.2" y2="2.6" stroke="#2a8a5a" stroke-width="0.12" stroke-dasharray="0.4,0.3" stroke-linecap="round"/>
<line x1="4.2" y1="2.6" x2="-4.2" y2="2.6" stroke="#2a8a5a" stroke-width="0.12" stroke-dasharray="0.4,0.3" stroke-linecap="round"/>
<line x1="-4.2" y1="2.6" x2="-4.2" y2="-2.6" stroke="#2a8a5a" stroke-width="0.12" stroke-dasharray="0.4,0.3" stroke-linecap="round"/>
<line x1="-2.4" y1="-2.4" x2="2.4" y2="-2.4" stroke="#c9d4da" stroke-width="0.12" stroke-linecap="round"/>
<g><rect x="-4" y="0.77" width="2" height="1" rx="0.11" fill="#c9892f"/></g>
<text x="-3" y="1.27" fill="#1a1200" font-size="0.55" font-family="monospace" text-anchor="middle" dominant-baseline="central">1</text>
<g><rect x="-4" y="-1.77" width="2" height="1" rx="0.11" fill="#c9892f"/></g>
<text x="-3" y="-1.27" fill="#1a1200" font-size="0.55" font-family="monospace" text-anchor="middle" dominant-baseline="central">3</text>
<g><rect x="2" y="-0.5" width="2" height="1" rx="0.11" fill="#c9892f"/></g>
<text x="3" y="0" fill="#1a1200" font-size="0.55" font-family="monospace" text-anchor="middle" dominant-baseline="central">2</text>
</g></svg>
