<!-- GENERATED by tools/build_components.py --gen-fp from components/footprints/ — DO NOT EDIT -->
<svg xmlns="http://www.w3.org/2000/svg" width="156.8182" height="150" viewBox="0 0 156.8182 150" role="img" aria-label="footprint POGO_Package_TO_SOT_SMD:SOT-23">
<rect x="0" y="0" width="156.8182" height="150" fill="#141414"/>
<g transform="translate(78.4091,75) scale(34.0909)">
<line x1="-0.7" y1="-0.95" x2="-0.7" y2="-1.4" stroke="#c9d4da" stroke-width="0.12" stroke-linecap="round"/>
<line x1="-0.7" y1="-1.4" x2="0.7" y2="-1.4" stroke="#c9d4da" stroke-width="0.12" stroke-linecap="round"/>
<line x1="0.7" y1="-1.4" x2="0.7" y2="-0.95" stroke="#c9d4da" stroke-width="0.12" stroke-linecap="round"/>
<line x1="-0.7" y1="0.95" x2="-0.7" y2="1.4" stroke="#c9d4da" stroke-width="0.12" stroke-linecap="round"/>
<line x1="-0.7" y1="1.4" x2="0.7" y2="1.4" stroke="#c9d4da" stroke-width="0.12" stroke-linecap="round"/>
<line x1="0.7" y1="1.4" x2="0.7" y2="0.95" stroke="#c9d4da" stroke-width="0.12" stroke-linecap="round"/>
<line x1="-0.7" y1="-1.4" x2="0.7" y2="-1.4" stroke="#4a5a66" stroke-width="0.12" stroke-linecap="round"/>
<line x1="0.7" y1="-1.4" x2="0.7" y2="1.4" stroke="#4a5a66" stroke-width="0.12" stroke-linecap="round"/>
<line x1="0.7" y1="1.4" x2="-0.7" y2="1.4" stroke="#4a5a66" stroke-width="0.12" stroke-linecap="round"/>
<line x1="-0.7" y1="1.4" x2="-0.7" y2="-1.4" stroke="#4a5a66" stroke-width="0.12" stroke-linecap="round"/>
<line x1="-1.7" y1="-1.6" x2="1.7" y2="-1.6" stroke="#2a8a5a" stroke-width="0.12" stroke-dasharray="0.4,0.3" stroke-linecap="round"/>
<line x1="1.7" y1="-1.6" x2="1.7" y2="1.6" stroke="#2a8a5a" stroke-width="0.12" stroke-dasharray="0.4,0.3" stroke-linecap="round"/>
<line x1="1.7" y1="1.6" x2="-1.7" y2="1.6" stroke="#2a8a5a" stroke-width="0.12" stroke-dasharray="0.4,0.3" stroke-linecap="round"/>
<line x1="-1.7" y1="1.6" x2="-1.7" y2="-1.6" stroke="#2a8a5a" stroke-width="0.12" stroke-dasharray="0.4,0.3" stroke-linecap="round"/>
<g><rect x="-1.6875" y="0.6525" width="1.5" height="0.6" rx="0.066" fill="#c9892f"/></g>
<text x="-0.9375" y="0.9525" fill="#1a1200" font-size="0.5" font-family="monospace" text-anchor="middle" dominant-baseline="central">1</text>
<g><rect x="-1.6875" y="-1.2525" width="1.5" height="0.6" rx="0.066" fill="#c9892f"/></g>
<text x="-0.9375" y="-0.9525" fill="#1a1200" font-size="0.5" font-family="monospace" text-anchor="middle" dominant-baseline="central">2</text>
<g><rect x="0.1875" y="-0.3" width="1.5" height="0.6" rx="0.066" fill="#c9892f"/></g>
<text x="0.9375" y="0" fill="#1a1200" font-size="0.5" font-family="monospace" text-anchor="middle" dominant-baseline="central">3</text>
</g></svg>
