<!-- GENERATED by tools/build_components.py --gen-fp from components/footprints/ — DO NOT EDIT -->
<svg xmlns="http://www.w3.org/2000/svg" width="210" height="52.7273" viewBox="0 0 210 52.7273" role="img" aria-label="footprint POGO_Package_SIP:SIP-8_2.54mm">
<rect x="0" y="0" width="210" height="52.7273" fill="#141414"/>
<g transform="translate(105.4545,26.3636) scale(9.0909)">
<line x1="-10.16" y1="-1.6" x2="10.16" y2="-1.6" stroke="#c9d4da" stroke-width="0.12" stroke-linecap="round"/>
<line x1="-10.16" y1="1.6" x2="10.16" y2="1.6" stroke="#c9d4da" stroke-width="0.12" stroke-linecap="round"/>
<line x1="-10.16" y1="-1.6" x2="-10.16" y2="1.6" stroke="#c9d4da" stroke-width="0.12" stroke-linecap="round"/>
<line x1="10.16" y1="-1.6" x2="10.16" y2="1.6" stroke="#c9d4da" stroke-width="0.12" stroke-linecap="round"/>
<line x1="-11" y1="-1.6" x2="-11" y2="-0.4" stroke="#c9d4da" stroke-width="0.12" stroke-linecap="round"/>
<line x1="-10.16" y1="-2" x2="10.16" y2="-2" stroke="#4a5a66" stroke-width="0.12" stroke-linecap="round"/>
<line x1="-10.16" y1="2" x2="10.16" y2="2" stroke="#4a5a66" stroke-width="0.12" stroke-linecap="round"/>
<line x1="-10.16" y1="-2" x2="-10.16" y2="2" stroke="#4a5a66" stroke-width="0.12" stroke-linecap="round"/>
<line x1="10.16" y1="-2" x2="10.16" y2="2" stroke="#4a5a66" stroke-width="0.12" stroke-linecap="round"/>
<line x1="-10.9" y1="-2.3" x2="10.9" y2="-2.3" stroke="#2a8a5a" stroke-width="0.12" stroke-dasharray="0.4,0.3" stroke-linecap="round"/>
<line x1="-10.9" y1="2.3" x2="10.9" y2="2.3" stroke="#2a8a5a" stroke-width="0.12" stroke-dasharray="0.4,0.3" stroke-linecap="round"/>
<line x1="-10.9" y1="-2.3" x2="-10.9" y2="2.3" stroke="#2a8a5a" stroke-width="0.12" stroke-dasharray="0.4,0.3" stroke-linecap="round"/>
<line x1="10.9" y1="-2.3" x2="10.9" y2="2.3" stroke="#2a8a5a" stroke-width="0.12" stroke-dasharray="0.4,0.3" stroke-linecap="round"/>
<g><rect x="-9.74" y="-0.85" width="1.7" height="1.7" rx="0" fill="#c9892f"/></g>
<circle cx="-8.89" cy="0" r="0.45" fill="#0d0d0d"/>
<text x="-8.89" y="0" fill="#1a1200" font-size="0.935" font-family="monospace" text-anchor="middle" dominant-baseline="central">1</text>
<g><circle cx="-6.35" cy="0" r="0.85" fill="#c9892f"/></g>
<circle cx="-6.35" cy="0" r="0.45" fill="#0d0d0d"/>
<text x="-6.35" y="0" fill="#1a1200" font-size="0.935" font-family="monospace" text-anchor="middle" dominant-baseline="central">2</text>
<g><circle cx="-3.81" cy="0" r="0.85" fill="#c9892f"/></g>
<circle cx="-3.81" cy="0" r="0.45" fill="#0d0d0d"/>
<text x="-3.81" y="0" fill="#1a1200" font-size="0.935" font-family="monospace" text-anchor="middle" dominant-baseline="central">3</text>
<g><circle cx="-1.27" cy="0" r="0.85" fill="#c9892f"/></g>
<circle cx="-1.27" cy="0" r="0.45" fill="#0d0d0d"/>
<text x="-1.27" y="0" fill="#1a1200" font-size="0.935" font-family="monospace" text-anchor="middle" dominant-baseline="central">4</text>
<g><circle cx="1.27" cy="0" r="0.85" fill="#c9892f"/></g>
<circle cx="1.27" cy="0" r="0.45" fill="#0d0d0d"/>
<text x="1.27" y="0" fill="#1a1200" font-size="0.935" font-family="monospace" text-anchor="middle" dominant-baseline="central">5</text>
<g><circle cx="3.81" cy="0" r="0.85" fill="#c9892f"/></g>
<circle cx="3.81" cy="0" r="0.45" fill="#0d0d0d"/>
<text x="3.81" y="0" fill="#1a1200" font-size="0.935" font-family="monospace" text-anchor="middle" dominant-baseline="central">6</text>
<g><circle cx="6.35" cy="0" r="0.85" fill="#c9892f"/></g>
<circle cx="6.35" cy="0" r="0.45" fill="#0d0d0d"/>
<text x="6.35" y="0" fill="#1a1200" font-size="0.935" font-family="monospace" text-anchor="middle" dominant-baseline="central">7</text>
<g><circle cx="8.89" cy="0" r="0.85" fill="#c9892f"/></g>
<circle cx="8.89" cy="0" r="0.45" fill="#0d0d0d"/>
<text x="8.89" y="0" fill="#1a1200" font-size="0.935" font-family="monospace" text-anchor="middle" dominant-baseline="central">8</text>
</g></svg>
