<!-- GENERATED by tools/build_components.py --gen-fp from components/footprints/ — DO NOT EDIT -->
<svg xmlns="http://www.w3.org/2000/svg" width="186.8421" height="150" viewBox="0 0 186.8421 150" role="img" aria-label="footprint POGO_Potentiometer_THT:Potentiometer_Songhuei_9mm_TallTrimmer_Vertical">
<rect x="0" y="0" width="186.8421" height="150" fill="#141414"/>
<g transform="translate(93.4211,75) scale(13.1579)">
<line x1="-6.5" y1="-5.1" x2="6.5" y2="-5.1" stroke="#2a8a5a" stroke-width="0.12" stroke-dasharray="0.4,0.3" stroke-linecap="round"/>
<line x1="6.5" y1="-5.1" x2="6.5" y2="5.1" stroke="#2a8a5a" stroke-width="0.12" stroke-dasharray="0.4,0.3" stroke-linecap="round"/>
<line x1="6.5" y1="5.1" x2="-6.5" y2="5.1" stroke="#2a8a5a" stroke-width="0.12" stroke-dasharray="0.4,0.3" stroke-linecap="round"/>
<line x1="-6.5" y1="5.1" x2="-6.5" y2="-5.1" stroke="#2a8a5a" stroke-width="0.12" stroke-dasharray="0.4,0.3" stroke-linecap="round"/>
<line x1="-4.85" y1="-4.85" x2="4.85" y2="-4.85" stroke="#4a5a66" stroke-width="0.12" stroke-linecap="round"/>
<line x1="4.85" y1="-4.85" x2="4.85" y2="4.85" stroke="#4a5a66" stroke-width="0.12" stroke-linecap="round"/>
<line x1="4.85" y1="4.85" x2="-4.85" y2="4.85" stroke="#4a5a66" stroke-width="0.12" stroke-linecap="round"/>
<line x1="-4.85" y1="4.85" x2="-4.85" y2="-4.85" stroke="#4a5a66" stroke-width="0.12" stroke-linecap="round"/>
<line x1="-4.85" y1="-4.85" x2="4.85" y2="-4.85" stroke="#c9d4da" stroke-width="0.12" stroke-linecap="round"/>
<line x1="-4.85" y1="4.85" x2="4.85" y2="4.85" stroke="#c9d4da" stroke-width="0.12" stroke-linecap="round"/>
<g><circle cx="-2.5" cy="3.5" r="0.8" fill="#c9892f"/></g>
<circle cx="-2.5" cy="3.5" r="0.5" fill="#0d0d0d"/>
<text x="-2.5" y="3.5" fill="#1a1200" font-size="0.88" font-family="monospace" text-anchor="middle" dominant-baseline="central">1</text>
<g><circle cx="0" cy="3.5" r="0.8" fill="#c9892f"/></g>
<circle cx="0" cy="3.5" r="0.5" fill="#0d0d0d"/>
<text x="0" y="3.5" fill="#1a1200" font-size="0.88" font-family="monospace" text-anchor="middle" dominant-baseline="central">2</text>
<g><circle cx="2.5" cy="3.5" r="0.8" fill="#c9892f"/></g>
<circle cx="2.5" cy="3.5" r="0.5" fill="#0d0d0d"/>
<text x="2.5" y="3.5" fill="#1a1200" font-size="0.88" font-family="monospace" text-anchor="middle" dominant-baseline="central">3</text>
<g><rect x="-6.4" y="-4.4" width="2.2" height="1.8" rx="0.45" fill="#c9892f"/></g>
<circle cx="-5.3" cy="-3.5" r="0.5" fill="#0d0d0d"/>
<text x="-5.3" y="-3.5" fill="#1a1200" font-size="0.99" font-family="monospace" text-anchor="middle" dominant-baseline="central"></text>
<g><rect x="4.2" y="-4.4" width="2.2" height="1.8" rx="0.45" fill="#c9892f"/></g>
<circle cx="5.3" cy="-3.5" r="0.5" fill="#0d0d0d"/>
<text x="5.3" y="-3.5" fill="#1a1200" font-size="0.99" font-family="monospace" text-anchor="middle" dominant-baseline="central"></text>
</g></svg>
