<!-- GENERATED by tools/build_components.py --gen-fp from components/footprints/ — DO NOT EDIT -->
<svg xmlns="http://www.w3.org/2000/svg" width="154.2297" height="150" viewBox="0 0 154.2297 150" role="img" aria-label="footprint POGO_Potentiometer_THT:Potentiometer_Songhuei_9mm_TallTrimmer_Vertical">
<rect x="0" y="0" width="154.2297" height="150" fill="#141414"/>
<g transform="translate(18.0536,49.2091) scale(10.3164)">
<circle cx="7.5" cy="2.5" r="4.85" fill="none" stroke="#4a5a66" stroke-width="0.12"/>
<line x1="-1.15" y1="9.17" x2="12.6" y2="9.17" stroke="#2a8a5a" stroke-width="0.12" stroke-dasharray="0.4,0.3" stroke-linecap="round"/>
<line x1="-1.15" y1="-4.17" x2="-1.15" y2="9.17" stroke="#2a8a5a" stroke-width="0.12" stroke-dasharray="0.4,0.3" stroke-linecap="round"/>
<line x1="12.6" y1="-4.17" x2="-1.15" y2="-4.17" stroke="#2a8a5a" stroke-width="0.12" stroke-dasharray="0.4,0.3" stroke-linecap="round"/>
<line x1="12.6" y1="9.17" x2="12.6" y2="-4.17" stroke="#2a8a5a" stroke-width="0.12" stroke-dasharray="0.4,0.3" stroke-linecap="round"/>
<line x1="12.47" y1="7.37" x2="12.47" y2="-2.37" stroke="#c9d4da" stroke-width="0.12" stroke-linecap="round"/>
<line x1="0.88" y1="7.37" x2="0.88" y2="5.88" stroke="#c9d4da" stroke-width="0.12" stroke-linecap="round"/>
<line x1="9.41" y1="7.37" x2="12.47" y2="7.37" stroke="#c9d4da" stroke-width="0.12" stroke-linecap="round"/>
<line x1="0.88" y1="-2.38" x2="5.6" y2="-2.38" stroke="#c9d4da" stroke-width="0.12" stroke-linecap="round"/>
<line x1="1" y1="7.25" x2="1" y2="-2.25" stroke="#4a5a66" stroke-width="0.12" stroke-linecap="round"/>
<line x1="12.35" y1="7.25" x2="12.35" y2="-2.25" stroke="#4a5a66" stroke-width="0.12" stroke-linecap="round"/>
<line x1="1" y1="-2.25" x2="12.35" y2="-2.25" stroke="#4a5a66" stroke-width="0.12" stroke-linecap="round"/>
<line x1="1" y1="7.25" x2="12.35" y2="7.25" stroke="#4a5a66" stroke-width="0.12" stroke-linecap="round"/>
<line x1="9.41" y1="-2.37" x2="12.47" y2="-2.37" stroke="#c9d4da" stroke-width="0.12" stroke-linecap="round"/>
<line x1="0.88" y1="7.37" x2="5.6" y2="7.37" stroke="#c9d4da" stroke-width="0.12" stroke-linecap="round"/>
<line x1="0.88" y1="-1.19" x2="0.88" y2="-2.37" stroke="#c9d4da" stroke-width="0.12" stroke-linecap="round"/>
<line x1="0.88" y1="1.71" x2="0.88" y2="1.18" stroke="#c9d4da" stroke-width="0.12" stroke-linecap="round"/>
<line x1="0.88" y1="4.16" x2="0.88" y2="3.33" stroke="#c9d4da" stroke-width="0.12" stroke-linecap="round"/>
<g transform="rotate(90 0 0)"><rect x="-0.9" y="-0.9" width="1.8" height="1.8" rx="0" fill="#c9892f"/></g>
<circle cx="0" cy="0" r="0.5" fill="#0d0d0d"/>
<text x="0" y="0" fill="#1a1200" font-size="0.99" font-family="monospace" text-anchor="middle" dominant-baseline="central">1</text>
<g transform="rotate(90 0 2.5)"><circle cx="0" cy="2.5" r="0.9" fill="#c9892f"/></g>
<circle cx="0" cy="2.5" r="0.5" fill="#0d0d0d"/>
<text x="0" y="2.5" fill="#1a1200" font-size="0.99" font-family="monospace" text-anchor="middle" dominant-baseline="central">2</text>
<g transform="rotate(90 0 5)"><circle cx="0" cy="5" r="0.9" fill="#c9892f"/></g>
<circle cx="0" cy="5" r="0.5" fill="#0d0d0d"/>
<text x="0" y="5" fill="#1a1200" font-size="0.99" font-family="monospace" text-anchor="middle" dominant-baseline="central">3</text>
<g transform="rotate(90 7.5 7.3)"><circle cx="7.5" cy="7.3" r="1.62" fill="#c9892f"/></g>
<circle cx="7.5" cy="7.3" r="0.9" fill="#0d0d0d"/>
<text x="7.5" y="7.3" fill="#1a1200" font-size="1.782" font-family="monospace" text-anchor="middle" dominant-baseline="central"></text>
<g transform="rotate(90 7.5 -2.3)"><circle cx="7.5" cy="-2.3" r="1.62" fill="#c9892f"/></g>
<circle cx="7.5" cy="-2.3" r="0.9" fill="#0d0d0d"/>
<text x="7.5" y="-2.3" fill="#1a1200" font-size="1.782" font-family="monospace" text-anchor="middle" dominant-baseline="central"></text>
</g></svg>
