<!-- GENERATED by tools/build_components.py --gen-fp from components/footprints/ — DO NOT EDIT -->
<svg xmlns="http://www.w3.org/2000/svg" width="195.4545" height="150" viewBox="0 0 195.4545 150" role="img" aria-label="footprint POGO_Package_SO:SOIC-8_3.9x4.9mm_P1.27mm">
<rect x="0" y="0" width="195.4545" height="150" fill="#141414"/>
<g transform="translate(97.7273,75) scale(22.7273)">
<line x1="0" y1="2.56" x2="1.95" y2="2.56" stroke="#c9d4da" stroke-width="0.12" stroke-linecap="round"/>
<line x1="0" y1="2.56" x2="-1.95" y2="2.56" stroke="#c9d4da" stroke-width="0.12" stroke-linecap="round"/>
<line x1="0" y1="-2.56" x2="1.95" y2="-2.56" stroke="#c9d4da" stroke-width="0.12" stroke-linecap="round"/>
<line x1="0" y1="-2.56" x2="-3.45" y2="-2.56" stroke="#c9d4da" stroke-width="0.12" stroke-linecap="round"/>
<line x1="-0.975" y1="-2.45" x2="1.95" y2="-2.45" stroke="#4a5a66" stroke-width="0.12" stroke-linecap="round"/>
<line x1="1.95" y1="-2.45" x2="1.95" y2="2.45" stroke="#4a5a66" stroke-width="0.12" stroke-linecap="round"/>
<line x1="1.95" y1="2.45" x2="-1.95" y2="2.45" stroke="#4a5a66" stroke-width="0.12" stroke-linecap="round"/>
<line x1="-1.95" y1="2.45" x2="-1.95" y2="-1.475" stroke="#4a5a66" stroke-width="0.12" stroke-linecap="round"/>
<line x1="-1.95" y1="-1.475" x2="-0.975" y2="-2.45" stroke="#4a5a66" stroke-width="0.12" stroke-linecap="round"/>
<line x1="-3.7" y1="-2.7" x2="-3.7" y2="2.7" stroke="#2a8a5a" stroke-width="0.12" stroke-dasharray="0.4,0.3" stroke-linecap="round"/>
<line x1="-3.7" y1="2.7" x2="3.7" y2="2.7" stroke="#2a8a5a" stroke-width="0.12" stroke-dasharray="0.4,0.3" stroke-linecap="round"/>
<line x1="3.7" y1="2.7" x2="3.7" y2="-2.7" stroke="#2a8a5a" stroke-width="0.12" stroke-dasharray="0.4,0.3" stroke-linecap="round"/>
<line x1="3.7" y1="-2.7" x2="-3.7" y2="-2.7" stroke="#2a8a5a" stroke-width="0.12" stroke-dasharray="0.4,0.3" stroke-linecap="round"/>
<g><rect x="-3.45" y="-2.205" width="1.95" height="0.6" rx="0.066" fill="#c9892f"/></g>
<text x="-2.475" y="-1.905" fill="#1a1200" font-size="0.5" font-family="monospace" text-anchor="middle" dominant-baseline="central">1</text>
<g><rect x="-3.45" y="-0.935" width="1.95" height="0.6" rx="0.066" fill="#c9892f"/></g>
<text x="-2.475" y="-0.635" fill="#1a1200" font-size="0.5" font-family="monospace" text-anchor="middle" dominant-baseline="central">2</text>
<g><rect x="-3.45" y="0.335" width="1.95" height="0.6" rx="0.066" fill="#c9892f"/></g>
<text x="-2.475" y="0.635" fill="#1a1200" font-size="0.5" font-family="monospace" text-anchor="middle" dominant-baseline="central">3</text>
<g><rect x="-3.45" y="1.605" width="1.95" height="0.6" rx="0.066" fill="#c9892f"/></g>
<text x="-2.475" y="1.905" fill="#1a1200" font-size="0.5" font-family="monospace" text-anchor="middle" dominant-baseline="central">4</text>
<g><rect x="1.5" y="1.605" width="1.95" height="0.6" rx="0.066" fill="#c9892f"/></g>
<text x="2.475" y="1.905" fill="#1a1200" font-size="0.5" font-family="monospace" text-anchor="middle" dominant-baseline="central">5</text>
<g><rect x="1.5" y="0.335" width="1.95" height="0.6" rx="0.066" fill="#c9892f"/></g>
<text x="2.475" y="0.635" fill="#1a1200" font-size="0.5" font-family="monospace" text-anchor="middle" dominant-baseline="central">6</text>
<g><rect x="1.5" y="-0.935" width="1.95" height="0.6" rx="0.066" fill="#c9892f"/></g>
<text x="2.475" y="-0.635" fill="#1a1200" font-size="0.5" font-family="monospace" text-anchor="middle" dominant-baseline="central">7</text>
<g><rect x="1.5" y="-2.205" width="1.95" height="0.6" rx="0.066" fill="#c9892f"/></g>
<text x="2.475" y="-1.905" fill="#1a1200" font-size="0.5" font-family="monospace" text-anchor="middle" dominant-baseline="central">8</text>
</g></svg>
