<svg xmlns="http://www.w3.org/2000/svg" width="91.2" height="349.2" viewBox="0 0 91.2 349.2" role="img" aria-label="footprint POGO_Potentiometer_THT:Potentiometer_Slider_45mm_Vertical">
<rect x="0" y="0" width="91.2" height="349.2" fill="#141414"/>
<g transform="translate(45.6,174.6) scale(6)">
<line x1="-6.5" y1="-28" x2="6.5" y2="-28" stroke="#4a5a66" stroke-width="0.12" stroke-linecap="round"/>
<line x1="6.5" y1="-28" x2="6.5" y2="28" stroke="#4a5a66" stroke-width="0.12" stroke-linecap="round"/>
<line x1="6.5" y1="28" x2="-6.5" y2="28" stroke="#4a5a66" stroke-width="0.12" stroke-linecap="round"/>
<line x1="-6.5" y1="28" x2="-6.5" y2="-28" stroke="#4a5a66" stroke-width="0.12" stroke-linecap="round"/>
<line x1="-4" y1="-22.5" x2="4" y2="-22.5" stroke="#4a5a66" stroke-width="0.12" stroke-linecap="round"/>
<line x1="-4" y1="22.5" x2="4" y2="22.5" stroke="#4a5a66" stroke-width="0.12" stroke-linecap="round"/>
<line x1="-2" y1="0" x2="2" y2="0" stroke="#4a5a66" stroke-width="0.12" stroke-linecap="round"/>
<line x1="-6.5" y1="-28" x2="6.5" y2="-28" stroke="#c9d4da" stroke-width="0.12" stroke-linecap="round"/>
<line x1="6.5" y1="-28" x2="6.5" y2="28" stroke="#c9d4da" stroke-width="0.12" stroke-linecap="round"/>
<line x1="6.5" y1="28" x2="-6.5" y2="28" stroke="#c9d4da" stroke-width="0.12" stroke-linecap="round"/>
<line x1="-6.5" y1="28" x2="-6.5" y2="-28" stroke="#c9d4da" stroke-width="0.12" stroke-linecap="round"/>
<line x1="-7" y1="-28.5" x2="7" y2="-28.5" stroke="#2a8a5a" stroke-width="0.12" stroke-dasharray="0.4,0.3" stroke-linecap="round"/>
<line x1="7" y1="-28.5" x2="7" y2="28.5" stroke="#2a8a5a" stroke-width="0.12" stroke-dasharray="0.4,0.3" stroke-linecap="round"/>
<line x1="7" y1="28.5" x2="-7" y2="28.5" stroke="#2a8a5a" stroke-width="0.12" stroke-dasharray="0.4,0.3" stroke-linecap="round"/>
<line x1="-7" y1="28.5" x2="-7" y2="-28.5" stroke="#2a8a5a" stroke-width="0.12" stroke-dasharray="0.4,0.3" stroke-linecap="round"/>
<g><rect x="-3" y="24.25" width="2.5" height="2.5" rx="0" fill="#c9892f"/></g>
<circle cx="-1.75" cy="25.5" r="0.75" fill="#0d0d0d"/>
<text x="-1.75" y="25.5" fill="#1a1200" font-size="1.375" font-family="monospace" text-anchor="middle" dominant-baseline="central">1</text>
<g><rect x="-1" y="24.25" width="2.5" height="2.5" rx="0.625" fill="#c9892f"/></g>
<circle cx="0.25" cy="25.5" r="0.75" fill="#0d0d0d"/>
<text x="0.25" y="25.5" fill="#1a1200" font-size="1.375" font-family="monospace" text-anchor="middle" dominant-baseline="central">2</text>
<g><rect x="-3" y="-26.75" width="2.5" height="2.5" rx="0.625" fill="#c9892f"/></g>
<circle cx="-1.75" cy="-25.5" r="0.75" fill="#0d0d0d"/>
<text x="-1.75" y="-25.5" fill="#1a1200" font-size="1.375" font-family="monospace" text-anchor="middle" dominant-baseline="central">3</text>
</g></svg>
