<!-- GENERATED by tools/build_panel.py — edit tools/panel-data.yaml -->
<svg xmlns="http://www.w3.org/2000/svg" width="304.8mm" height="128.5mm" viewBox="0 0 304.80 128.5">

  <!-- ── PANEL BACKGROUND ─────────────────────────────────────────────────── -->
  <rect x="0" y="0" width="304.8" height="128.5" fill="#0d0d0d"/>
  <rect x="0" y="0" width="304.8" height="9.0" fill="#141414"/>
  <rect x="0" y="124.0" width="304.8" height="4.5" fill="#141414"/>

  <!--
    PANEL: 304.80 mm wide × 128.50 mm tall
    1 HP = 5.08 mm   jack pitch = 10.16 mm (2 HP)
    Jack x centres in an N-HP zone starting at x0:
      2 HP (1 j): x0+5.08
      4 HP (2 j): x0+5.08, x0+15.24
      6 HP (3 j): x0+5.08, x0+15.24, x0+25.40
      8 HP (4 j): x0+5.08, x0+15.24, x0+25.40, x0+35.56
  -->

  <!-- Mounting holes: M3 -->
  <circle cx="7.5" cy="5.1" r="1.6" fill="#0d0d0d" stroke="#2a2a2a" stroke-width="0.5"/>
  <circle cx="297.3" cy="5.1" r="1.6" fill="#0d0d0d" stroke="#2a2a2a" stroke-width="0.5"/>
  <circle cx="7.5" cy="123.4" r="1.6" fill="#0d0d0d" stroke="#2a2a2a" stroke-width="0.5"/>
  <circle cx="297.3" cy="123.4" r="1.6" fill="#0d0d0d" stroke="#2a2a2a" stroke-width="0.5"/>

  <!-- ── TOP STRIP ──────────────────────────────────────────────────────────── -->
  <text x="101.60" y="5.75" fill="#00d4ff" font-family="monospace" font-size="3.5" font-weight="bold" text-anchor="middle">POGO  <tspan fill="#ff8800">·</tspan> STEREO TRIPLE BANDPASS FILTER</text>

  <!-- ── BOTTOM STRIP ───────────────────────────────────────────────────────── -->
  <text x="101.60" y="127.5" fill="#4a6070" font-family="monospace" font-size="2.4" text-anchor="middle" letter-spacing="0.15">SPACE COAST SYNTHESIZERS  ·  SCS</text>

  <!-- ── MAIN ZONE SEPARATOR LINES (cyan) ──────────────────────────────────── -->
  <line x1="34.29" y1="9.0" x2="34.29" y2="124.0" stroke="#00d4ff" stroke-width="0.5" opacity="0.55"/>
  <line x1="68.58" y1="9.0" x2="68.58" y2="124.0" stroke="#00d4ff" stroke-width="0.5" opacity="0.55"/>
  <line x1="91.44" y1="9.0" x2="91.44" y2="124.0" stroke="#00d4ff" stroke-width="0.5" opacity="0.55"/>

  <!-- ── ZONE DIVIDERS (dim gray horizontal) ──────────────────────────────── -->
  <line x1="1.0" y1="9.0" x2="11.89" y2="9.0" stroke="#3a3a3a" stroke-width="0.5"/>
  <line x1="22.39" y1="9.0" x2="33.79" y2="9.0" stroke="#3a3a3a" stroke-width="0.5"/>
  <text x="17.145" y="9.0" fill="#999" font-family="monospace" font-size="2.0" text-anchor="middle" dominant-baseline="middle">INPUT</text>
  <line x1="1.0" y1="43.0" x2="12.54" y2="43.0" stroke="#3a3a3a" stroke-width="0.5"/>
  <line x1="21.75" y1="43.0" x2="33.79" y2="43.0" stroke="#3a3a3a" stroke-width="0.5"/>
  <text x="17.145" y="43.0" fill="#999" font-family="monospace" font-size="2.0" text-anchor="middle" dominant-baseline="middle">LFOs</text>
  <line x1="1.0" y1="77.0" x2="10.59" y2="77.0" stroke="#3a3a3a" stroke-width="0.5"/>
  <line x1="23.70" y1="77.0" x2="33.79" y2="77.0" stroke="#3a3a3a" stroke-width="0.5"/>
  <text x="17.145" y="77.0" fill="#999" font-family="monospace" font-size="2.0" text-anchor="middle" dominant-baseline="middle">MOD BUS</text>
  <line x1="35.29" y1="9.0" x2="47.48" y2="9.0" stroke="#3a3a3a" stroke-width="0.5"/>
  <line x1="55.39" y1="9.0" x2="68.08" y2="9.0" stroke="#3a3a3a" stroke-width="0.5"/>
  <text x="51.435" y="9.0" fill="#999" font-family="monospace" font-size="2.0" text-anchor="middle" dominant-baseline="middle">LP1</text>
  <line x1="69.58" y1="9.0" x2="76.71" y2="9.0" stroke="#3a3a3a" stroke-width="0.5"/>
  <line x1="83.31" y1="9.0" x2="90.94" y2="9.0" stroke="#3a3a3a" stroke-width="0.5"/>
  <text x="80.01" y="9.0" fill="#999" font-family="monospace" font-size="2.0" text-anchor="middle" dominant-baseline="middle">BP</text>

  <!-- ── LP2+HP+OUT ZONE: TOP STRIP / FILTER SECTION DIVIDER ──────────────── -->

  <!-- ════════════════════════════════════════════════════════════════════════ -->
  <!-- ZONE LABELS                                                              -->
  <!-- ════════════════════════════════════════════════════════════════════════ -->

  <!-- ════════════════════════════════════════════════════════════════════════ -->
  <!-- Zone 0a — INPUT / GAIN                                                   -->
  <!-- ════════════════════════════════════════════════════════════════════════ -->

  <circle cx="5.715" cy="17.0" r="3.5" fill="none" stroke="#555" stroke-width="0.6"/>
  <circle cx="5.715" cy="17.0" r="1.4" fill="#333" stroke="#666" stroke-width="0.4"/>
  <text x="5.715" y="24.0" fill="#888" font-family="monospace" font-size="1.8" text-anchor="middle">L IN</text>
  <circle cx="17.145" cy="17.0" r="3.5" fill="none" stroke="#555" stroke-width="0.6"/>
  <circle cx="17.145" cy="17.0" r="1.4" fill="#333" stroke="#666" stroke-width="0.4"/>
  <text x="17.145" y="24.0" fill="#888" font-family="monospace" font-size="1.8" text-anchor="middle">R IN</text>
  <text x="28.575" y="13.5" fill="#888" font-family="monospace" font-size="1.8" text-anchor="middle">MAIN</text>
  <rect x="24.07" y="15.80" width="9" height="2.4" rx="1.2" fill="#222" stroke="#555" stroke-width="0.5"/>
  <rect x="24.57" y="15.60" width="3.5" height="2.8" rx="0.8" fill="#666" stroke="#888" stroke-width="0.3"/>
  <text x="24.075" y="21.0" fill="#888" font-family="monospace" font-size="1.6" text-anchor="middle">1×</text>
  <text x="33.075" y="21.0" fill="#888" font-family="monospace" font-size="1.6" text-anchor="middle">5×</text>
  <circle cx="5.715" cy="31.5" r="3.5" fill="none" stroke="#555" stroke-width="0.6"/>
  <circle cx="5.715" cy="31.5" r="1.4" fill="#333" stroke="#666" stroke-width="0.4"/>
  <text x="5.715" y="38.5" fill="#888" font-family="monospace" font-size="1.6" text-anchor="middle">BP3 L</text>
  <circle cx="17.145" cy="31.5" r="3.5" fill="none" stroke="#555" stroke-width="0.6"/>
  <circle cx="17.145" cy="31.5" r="1.4" fill="#333" stroke="#666" stroke-width="0.4"/>
  <text x="17.145" y="38.5" fill="#888" font-family="monospace" font-size="1.6" text-anchor="middle">BP3 R</text>
  <text x="28.575" y="28.0" fill="#888" font-family="monospace" font-size="1.8" text-anchor="middle">BP3</text>
  <rect x="24.07" y="30.30" width="9" height="2.4" rx="1.2" fill="#222" stroke="#555" stroke-width="0.5"/>
  <rect x="24.57" y="30.10" width="3.5" height="2.8" rx="0.8" fill="#666" stroke="#888" stroke-width="0.3"/>
  <text x="24.075" y="35.5" fill="#888" font-family="monospace" font-size="1.6" text-anchor="middle">1×</text>
  <text x="33.075" y="35.5" fill="#888" font-family="monospace" font-size="1.6" text-anchor="middle">5×</text>

  <!-- ════════════════════════════════════════════════════════════════════════ -->
  <!-- Zone 0b — LFO                                                            -->
  <!-- ════════════════════════════════════════════════════════════════════════ -->

  <circle cx="5.715" cy="51.5" r="3.5" fill="none" stroke="#555" stroke-width="0.6"/>
  <circle cx="5.715" cy="51.5" r="1.4" fill="#333" stroke="#666" stroke-width="0.4"/>
  <rect x="2.21" y="56.74" width="7.0" height="2.26" rx="0.6" fill="none" stroke="#888" stroke-width="0.3"/>
  <text x="5.715" y="58.5" fill="#888" font-family="monospace" font-size="1.6" text-anchor="middle">LFO 1</text>
  <circle cx="17.145" cy="51.5" r="1.2" fill="#112244" stroke="#2255cc" stroke-width="0.4"/>
  <circle cx="28.575" cy="51.5" r="4.5" fill="#1a1a1a" stroke="#555" stroke-width="0.6"/>
  <line x1="28.575" y1="51.5" x2="28.575" y2="47.0" stroke="#aaa" stroke-width="0.6"/>
  <text x="28.575" y="59.0" fill="#999" font-family="monospace" font-size="1.8" text-anchor="middle">Rate 1</text>
  <circle cx="5.715" cy="65.9" r="3.5" fill="none" stroke="#555" stroke-width="0.6"/>
  <circle cx="5.715" cy="65.9" r="1.4" fill="#333" stroke="#666" stroke-width="0.4"/>
  <rect x="2.21" y="71.14" width="7.0" height="2.26" rx="0.6" fill="none" stroke="#888" stroke-width="0.3"/>
  <text x="5.715" y="72.9" fill="#888" font-family="monospace" font-size="1.6" text-anchor="middle">LFO 2</text>
  <circle cx="17.145" cy="65.9" r="1.2" fill="#112244" stroke="#2255cc" stroke-width="0.4"/>
  <circle cx="28.575" cy="65.9" r="4.5" fill="#1a1a1a" stroke="#555" stroke-width="0.6"/>
  <line x1="28.575" y1="65.9" x2="28.575" y2="61.400000000000006" stroke="#aaa" stroke-width="0.6"/>
  <text x="28.575" y="73.4" fill="#999" font-family="monospace" font-size="1.8" text-anchor="middle">Rate 2</text>

  <!-- ════════════════════════════════════════════════════════════════════════ -->
  <!-- Zone 0c — MOD BUS                                                        -->
  <!-- ════════════════════════════════════════════════════════════════════════ -->

  <circle cx="5.715" cy="83.0" r="2.5" fill="#1a1a1a" stroke="#555" stroke-width="0.5"/>
  <line x1="5.715" y1="83.0" x2="5.715" y2="80.5" stroke="#aaa" stroke-width="0.5"/>
  <text x="5.715" y="88.5" fill="#999" font-family="monospace" font-size="1.8" text-anchor="middle">SCALE</text>
  <circle cx="28.575" cy="83.0" r="2.5" fill="#1a1a1a" stroke="#555" stroke-width="0.5"/>
  <line x1="28.575" y1="83.0" x2="28.575" y2="80.5" stroke="#aaa" stroke-width="0.5"/>
  <text x="28.575" y="88.5" fill="#999" font-family="monospace" font-size="1.8" text-anchor="middle">VCA AMT</text>
  <circle cx="17.145" cy="83.0" r="1.2" fill="#441111" stroke="#cc2222" stroke-width="0.4"/>
  <text x="17.145" y="88.5" fill="#888" font-family="monospace" font-size="1.8" text-anchor="middle">CLIP</text>
  <circle cx="5.715" cy="96.34" r="2.5" fill="#1a1a1a" stroke="#555" stroke-width="0.5"/>
  <line x1="5.715" y1="96.34" x2="5.715" y2="93.84" stroke="#aaa" stroke-width="0.5"/>
  <text x="5.715" y="101.8" fill="#999" font-family="monospace" font-size="1.8" text-anchor="middle">OFFSET</text>
  <circle cx="28.575" cy="96.34" r="2.5" fill="#1a1a1a" stroke="#555" stroke-width="0.5"/>
  <line x1="28.575" y1="96.34" x2="28.575" y2="93.84" stroke="#aaa" stroke-width="0.5"/>
  <text x="28.575" y="101.8" fill="#999" font-family="monospace" font-size="1.8" text-anchor="middle">VCA OFS</text>
  <circle cx="17.145" cy="96.34" r="1.2" fill="#112244" stroke="#2255cc" stroke-width="0.4"/>
  <text x="17.145" y="101.8" fill="#888" font-family="monospace" font-size="1.8" text-anchor="middle">POS</text>
  <circle cx="5.715" cy="112.0" r="3.5" fill="none" stroke="#555" stroke-width="0.6"/>
  <circle cx="5.715" cy="112.0" r="1.4" fill="#333" stroke="#666" stroke-width="0.4"/>
  <text x="5.715" y="119.0" fill="#888" font-family="monospace" font-size="1.6" text-anchor="middle">MOD IN</text>
  <circle cx="17.145" cy="112.0" r="1.2" fill="#441111" stroke="#cc2222" stroke-width="0.4"/>
  <text x="17.145" y="119.0" fill="#888" font-family="monospace" font-size="1.8" text-anchor="middle">NEG</text>
  <circle cx="28.575" cy="112.0" r="3.5" fill="none" stroke="#555" stroke-width="0.6"/>
  <circle cx="28.575" cy="112.0" r="1.4" fill="#333" stroke="#666" stroke-width="0.4"/>
  <text x="28.575" y="119.0" fill="#888" font-family="monospace" font-size="1.6" text-anchor="middle">VCA IN</text>

  <!-- ════════════════════════════════════════════════════════════════════════ -->
  <!-- Zone — LP1 Low-Pass Filter                                               -->
  <!-- ════════════════════════════════════════════════════════════════════════ -->

  <circle cx="51.435" cy="24.8" r="9.0" fill="#1a1a1a" stroke="#555" stroke-width="0.7"/>
  <line x1="51.435" y1="24.8" x2="51.435" y2="15.8" stroke="#aaa" stroke-width="0.8"/>
  <text x="51.435" y="36.8" fill="#999" font-family="monospace" font-size="1.8" text-anchor="middle">FREQ</text>
  <circle cx="51.435" cy="52.4" r="7.0" fill="#1a1a1a" stroke="#555" stroke-width="0.6"/>
  <line x1="51.435" y1="52.4" x2="51.435" y2="45.4" stroke="#aaa" stroke-width="0.7"/>
  <text x="51.435" y="62.4" fill="#999" font-family="monospace" font-size="1.8" text-anchor="middle">TILT</text>
  <circle cx="51.435" cy="78.0" r="7.0" fill="#1a1a1a" stroke="#555" stroke-width="0.6"/>
  <line x1="51.435" y1="78.0" x2="51.435" y2="71.0" stroke="#aaa" stroke-width="0.7"/>
  <text x="51.435" y="88.0" fill="#999" font-family="monospace" font-size="1.8" text-anchor="middle">RES</text>
  <circle cx="40.004999999999995" cy="100.0" r="2.5" fill="#1a1a1a" stroke="#555" stroke-width="0.5"/>
  <line x1="40.004999999999995" y1="100.0" x2="40.004999999999995" y2="97.5" stroke="#aaa" stroke-width="0.5"/>
  <text x="40.004999999999995" y="105.5" fill="#999" font-family="monospace" font-size="1.8" text-anchor="middle"></text>
  <circle cx="51.435" cy="100.0" r="2.5" fill="#1a1a1a" stroke="#555" stroke-width="0.5"/>
  <line x1="51.435" y1="100.0" x2="51.435" y2="97.5" stroke="#aaa" stroke-width="0.5"/>
  <text x="51.435" y="105.5" fill="#999" font-family="monospace" font-size="1.8" text-anchor="middle"></text>
  <circle cx="62.864999999999995" cy="100.0" r="2.5" fill="#1a1a1a" stroke="#555" stroke-width="0.5"/>
  <line x1="62.864999999999995" y1="100.0" x2="62.864999999999995" y2="97.5" stroke="#aaa" stroke-width="0.5"/>
  <text x="62.864999999999995" y="105.5" fill="#999" font-family="monospace" font-size="1.8" text-anchor="middle"></text>
  <circle cx="40.004999999999995" cy="112.0" r="3.5" fill="none" stroke="#555" stroke-width="0.6"/>
  <circle cx="40.004999999999995" cy="112.0" r="1.4" fill="#333" stroke="#666" stroke-width="0.4"/>
  <text x="40.004999999999995" y="119.0" fill="#888" font-family="monospace" font-size="1.8" text-anchor="middle">FREQ</text>
  <circle cx="51.435" cy="112.0" r="3.5" fill="none" stroke="#555" stroke-width="0.6"/>
  <circle cx="51.435" cy="112.0" r="1.4" fill="#333" stroke="#666" stroke-width="0.4"/>
  <text x="51.435" y="119.0" fill="#888" font-family="monospace" font-size="1.8" text-anchor="middle">TILT</text>
  <circle cx="62.864999999999995" cy="112.0" r="3.5" fill="none" stroke="#555" stroke-width="0.6"/>
  <circle cx="62.864999999999995" cy="112.0" r="1.4" fill="#333" stroke="#666" stroke-width="0.4"/>
  <text x="62.864999999999995" y="119.0" fill="#888" font-family="monospace" font-size="1.8" text-anchor="middle">RES</text>

  <!-- ════════════════════════════════════════════════════════════════════════ -->
  <!-- Zone — BP CONTROL                                                        -->
  <!-- ════════════════════════════════════════════════════════════════════════ -->

  <circle cx="80.01" cy="24.8" r="9.0" fill="#1a1a1a" stroke="#555" stroke-width="0.7"/>
  <line x1="80.01" y1="24.8" x2="80.01" y2="15.8" stroke="#aaa" stroke-width="0.8"/>
  <text x="80.01" y="36.8" fill="#999" font-family="monospace" font-size="1.8" text-anchor="middle">OFFSET</text>
  <circle cx="80.01" cy="52.4" r="4.5" fill="#1a1a1a" stroke="#555" stroke-width="0.6"/>
  <line x1="80.01" y1="52.4" x2="80.01" y2="47.9" stroke="#aaa" stroke-width="0.6"/>
  <text x="80.01" y="59.9" fill="#999" font-family="monospace" font-size="1.8" text-anchor="middle">MIX</text>
  <text x="80.01" y="66.5" fill="#888" font-family="monospace" font-size="1.8" text-anchor="middle"></text>
  <rect x="75.51" y="68.80" width="9" height="2.4" rx="1.2" fill="#222" stroke="#555" stroke-width="0.5"/>
  <rect x="76.01" y="68.60" width="3.5" height="2.8" rx="0.8" fill="#666" stroke="#888" stroke-width="0.3"/>
  <text x="75.51" y="74.0" fill="#888" font-family="monospace" font-size="1.6" text-anchor="middle">POS</text>
  <text x="84.51" y="74.0" fill="#888" font-family="monospace" font-size="1.6" text-anchor="middle">NEG</text>
  <rect x="74.01" y="80.80" width="12" height="2.4" rx="1.2" fill="#222" stroke="#555" stroke-width="0.5"/>
  <rect x="78.26" y="80.60" width="3.5" height="2.8" rx="0.8" fill="#666" stroke="#888" stroke-width="0.3"/>
  <text x="74.3" y="87.3" fill="#888" font-family="monospace" font-size="1.6" text-anchor="middle">SOFT</text>
  <text x="80.01" y="87.3" fill="#888" font-family="monospace" font-size="1.6" text-anchor="middle">HARD</text>
  <text x="85.72" y="87.3" fill="#888" font-family="monospace" font-size="1.6" text-anchor="middle">FOLD</text>
  <text x="80.01" y="90.8" fill="#999" font-family="monospace" font-size="1.8" text-anchor="middle"></text>
  <circle cx="74.295" cy="100.0" r="2.5" fill="#1a1a1a" stroke="#555" stroke-width="0.5"/>
  <line x1="74.295" y1="100.0" x2="74.295" y2="97.5" stroke="#aaa" stroke-width="0.5"/>
  <text x="74.295" y="105.5" fill="#999" font-family="monospace" font-size="1.8" text-anchor="middle"></text>
  <circle cx="85.725" cy="100.0" r="2.5" fill="#1a1a1a" stroke="#555" stroke-width="0.5"/>
  <line x1="85.725" y1="100.0" x2="85.725" y2="97.5" stroke="#aaa" stroke-width="0.5"/>
  <text x="85.725" y="105.5" fill="#999" font-family="monospace" font-size="1.8" text-anchor="middle"></text>
  <circle cx="74.295" cy="112.0" r="3.5" fill="none" stroke="#555" stroke-width="0.6"/>
  <circle cx="74.295" cy="112.0" r="1.4" fill="#333" stroke="#666" stroke-width="0.4"/>
  <text x="74.295" y="119.0" fill="#888" font-family="monospace" font-size="1.8" text-anchor="middle">FREQ</text>
  <circle cx="85.725" cy="112.0" r="3.5" fill="none" stroke="#555" stroke-width="0.6"/>
  <circle cx="85.725" cy="112.0" r="1.4" fill="#333" stroke="#666" stroke-width="0.4"/>
  <text x="85.725" y="119.0" fill="#888" font-family="monospace" font-size="1.8" text-anchor="middle">TILT</text>

</svg>