<!-- GENERATED by tools/build_panel.py — edit tools/panel-data.yaml -->
<svg xmlns="http://www.w3.org/2000/svg" width="243.84mm" height="128.5mm" viewBox="0 0 243.84 128.5">

  <!-- ── PANEL BACKGROUND ─────────────────────────────────────────────────── -->
  <rect x="0" y="0" width="243.84" height="128.5" fill="#0d0d0d"/>
  <rect x="0" y="0" width="243.84" height="9.0" fill="#141414"/>
  <rect x="0" y="124.0" width="243.84" height="4.5" fill="#141414"/>

  <!--
    PANEL: 243.84 mm wide × 128.50 mm tall
    1 HP = 5.08 mm   jack pitch = 10.16 mm (2 HP)
    Jack x centres in an N-HP zone starting at x0:
      2 HP (1 j): x0+5.08
      4 HP (2 j): x0+5.08, x0+15.24
      6 HP (3 j): x0+5.08, x0+15.24, x0+25.40
      8 HP (4 j): x0+5.08, x0+15.24, x0+25.40, x0+35.56
  -->

  <!-- Mounting holes: M3 -->
  <circle cx="7.5" cy="5.1" r="1.6" fill="#0d0d0d" stroke="#2a2a2a" stroke-width="0.5"/>
  <circle cx="236.34" cy="5.1" r="1.6" fill="#0d0d0d" stroke="#2a2a2a" stroke-width="0.5"/>
  <circle cx="7.5" cy="123.4" r="1.6" fill="#0d0d0d" stroke="#2a2a2a" stroke-width="0.5"/>
  <circle cx="236.34" cy="123.4" r="1.6" fill="#0d0d0d" stroke="#2a2a2a" stroke-width="0.5"/>

  <!-- ── TOP STRIP ──────────────────────────────────────────────────────────── -->
  <text x="121.92" y="5.75" fill="#00d4ff" font-family="monospace" font-size="3.5" font-weight="bold" text-anchor="middle">POGO  <tspan fill="#ff8800">·</tspan> STEREO TRIPLE BANDPASS FILTER</text>

  <!-- ── BOTTOM STRIP ───────────────────────────────────────────────────────── -->
  <text x="121.92" y="127.5" fill="#4a6070" font-family="monospace" font-size="2.4" text-anchor="middle" letter-spacing="0.15">SPACE COAST SYNTHESIZERS  ·  SCS</text>

  <!-- ── MAIN ZONE SEPARATOR LINES (cyan) ──────────────────────────────────── -->
  <line x1="36.195" y1="9.0" x2="36.195" y2="124.0" stroke="#00d4ff" stroke-width="0.5" opacity="0.55"/>
  <line x1="70.485" y1="9.0" x2="70.485" y2="124.0" stroke="#00d4ff" stroke-width="0.5" opacity="0.55"/>
  <line x1="196.215" y1="9.0" x2="196.215" y2="124.0" stroke="#00d4ff" stroke-width="0.5" opacity="0.55"/>
  <line x1="219.075" y1="9.0" x2="219.075" y2="124.0" stroke="#00d4ff" stroke-width="0.5" opacity="0.55"/>
  <line x1="241.935" y1="9.0" x2="241.935" y2="124.0" stroke="#00d4ff" stroke-width="0.5" opacity="0.55"/>
  <line x1="93.345" y1="9.0" x2="93.345" y2="124.0" stroke="#3a3a3a" stroke-width="0.5"/>
  <line x1="127.635" y1="9.0" x2="127.635" y2="124.0" stroke="#3a3a3a" stroke-width="0.5"/>
  <line x1="161.925" y1="9.0" x2="161.925" y2="124.0" stroke="#3a3a3a" stroke-width="0.5"/>

  <!-- ── ZONE DIVIDERS (dim gray horizontal) ──────────────────────────────── -->
  <line x1="2.9050000000000002" y1="9.0" x2="13.80" y2="9.0" stroke="#3a3a3a" stroke-width="0.5"/>
  <line x1="24.30" y1="9.0" x2="35.695" y2="9.0" stroke="#3a3a3a" stroke-width="0.5"/>
  <text x="19.05" y="9.0" fill="#999" font-family="monospace" font-size="2.0" text-anchor="middle" dominant-baseline="middle">INPUT</text>
  <line x1="2.9050000000000002" y1="43.0" x2="14.45" y2="43.0" stroke="#3a3a3a" stroke-width="0.5"/>
  <line x1="23.65" y1="43.0" x2="35.695" y2="43.0" stroke="#3a3a3a" stroke-width="0.5"/>
  <text x="19.05" y="43.0" fill="#999" font-family="monospace" font-size="2.0" text-anchor="middle" dominant-baseline="middle">LFOs</text>
  <line x1="2.9050000000000002" y1="77.0" x2="12.50" y2="77.0" stroke="#3a3a3a" stroke-width="0.5"/>
  <line x1="25.60" y1="77.0" x2="35.695" y2="77.0" stroke="#3a3a3a" stroke-width="0.5"/>
  <text x="19.05" y="77.0" fill="#999" font-family="monospace" font-size="2.0" text-anchor="middle" dominant-baseline="middle">MOD BUS</text>
  <line x1="37.195" y1="9.0" x2="49.39" y2="9.0" stroke="#3a3a3a" stroke-width="0.5"/>
  <line x1="57.29" y1="9.0" x2="69.985" y2="9.0" stroke="#3a3a3a" stroke-width="0.5"/>
  <text x="53.34" y="9.0" fill="#999" font-family="monospace" font-size="2.0" text-anchor="middle" dominant-baseline="middle">LP1</text>
  <line x1="71.485" y1="9.0" x2="78.62" y2="9.0" stroke="#3a3a3a" stroke-width="0.5"/>
  <line x1="85.22" y1="9.0" x2="92.845" y2="9.0" stroke="#3a3a3a" stroke-width="0.5"/>
  <text x="81.915" y="9.0" fill="#999" font-family="monospace" font-size="2.0" text-anchor="middle" dominant-baseline="middle">BP</text>
  <line x1="94.345" y1="9.0" x2="105.89" y2="9.0" stroke="#3a3a3a" stroke-width="0.5"/>
  <line x1="115.09" y1="9.0" x2="127.135" y2="9.0" stroke="#3a3a3a" stroke-width="0.5"/>
  <text x="110.49" y="9.0" fill="#999" font-family="monospace" font-size="2.0" text-anchor="middle" dominant-baseline="middle">BP 1</text>
  <line x1="128.635" y1="9.0" x2="140.18" y2="9.0" stroke="#3a3a3a" stroke-width="0.5"/>
  <line x1="149.38" y1="9.0" x2="161.425" y2="9.0" stroke="#3a3a3a" stroke-width="0.5"/>
  <text x="144.78" y="9.0" fill="#999" font-family="monospace" font-size="2.0" text-anchor="middle" dominant-baseline="middle">BP 2</text>
  <line x1="162.925" y1="9.0" x2="174.47" y2="9.0" stroke="#3a3a3a" stroke-width="0.5"/>
  <line x1="183.67" y1="9.0" x2="195.715" y2="9.0" stroke="#3a3a3a" stroke-width="0.5"/>
  <text x="179.07" y="9.0" fill="#999" font-family="monospace" font-size="2.0" text-anchor="middle" dominant-baseline="middle">BP 3</text>
  <line x1="197.215" y1="9.0" x2="204.34" y2="9.0" stroke="#3a3a3a" stroke-width="0.5"/>
  <line x1="210.95" y1="9.0" x2="218.575" y2="9.0" stroke="#3a3a3a" stroke-width="0.5"/>
  <text x="207.645" y="9.0" fill="#999" font-family="monospace" font-size="2.0" text-anchor="middle" dominant-baseline="middle">HP</text>
  <line x1="197.215" y1="26.0" x2="218.575" y2="26.0" stroke="#3a3a3a" stroke-width="0.5"/>
  <line x1="220.075" y1="9.0" x2="226.56" y2="9.0" stroke="#3a3a3a" stroke-width="0.5"/>
  <line x1="234.45" y1="9.0" x2="241.435" y2="9.0" stroke="#3a3a3a" stroke-width="0.5"/>
  <text x="230.505" y="9.0" fill="#999" font-family="monospace" font-size="2.0" text-anchor="middle" dominant-baseline="middle">LP2</text>
  <line x1="220.075" y1="26.0" x2="241.435" y2="26.0" stroke="#3a3a3a" stroke-width="0.5"/>

  <!-- ── LP2+HP+OUT ZONE: TOP STRIP / FILTER SECTION DIVIDER ──────────────── -->

  <!-- ════════════════════════════════════════════════════════════════════════ -->
  <!-- ZONE LABELS                                                              -->
  <!-- ════════════════════════════════════════════════════════════════════════ -->

  <!-- ════════════════════════════════════════════════════════════════════════ -->
  <!-- Zone 0a — INPUT / GAIN                                                   -->
  <!-- ════════════════════════════════════════════════════════════════════════ -->

  <circle cx="7.62" cy="17.0" r="3.5" fill="none" stroke="#555" stroke-width="0.6"/>
  <circle cx="7.62" cy="17.0" r="1.4" fill="#333" stroke="#666" stroke-width="0.4"/>
  <text x="7.62" y="24.0" fill="#888" font-family="monospace" font-size="1.8" text-anchor="middle">L IN</text>
  <circle cx="19.05" cy="17.0" r="3.5" fill="none" stroke="#555" stroke-width="0.6"/>
  <circle cx="19.05" cy="17.0" r="1.4" fill="#333" stroke="#666" stroke-width="0.4"/>
  <text x="19.05" y="24.0" fill="#888" font-family="monospace" font-size="1.8" text-anchor="middle">R IN</text>
  <text x="30.48" y="13.5" fill="#888" font-family="monospace" font-size="1.8" text-anchor="middle">MAIN</text>
  <rect x="25.98" y="15.80" width="9" height="2.4" rx="1.2" fill="#222" stroke="#555" stroke-width="0.5"/>
  <rect x="26.48" y="15.60" width="3.5" height="2.8" rx="0.8" fill="#666" stroke="#888" stroke-width="0.3"/>
  <text x="24.075" y="21.0" fill="#888" font-family="monospace" font-size="1.6" text-anchor="middle">1×</text>
  <text x="33.075" y="21.0" fill="#888" font-family="monospace" font-size="1.6" text-anchor="middle">5×</text>
  <circle cx="7.62" cy="31.5" r="3.5" fill="none" stroke="#555" stroke-width="0.6"/>
  <circle cx="7.62" cy="31.5" r="1.4" fill="#333" stroke="#666" stroke-width="0.4"/>
  <text x="7.62" y="38.5" fill="#888" font-family="monospace" font-size="1.6" text-anchor="middle">BP3 L</text>
  <circle cx="19.05" cy="31.5" r="3.5" fill="none" stroke="#555" stroke-width="0.6"/>
  <circle cx="19.05" cy="31.5" r="1.4" fill="#333" stroke="#666" stroke-width="0.4"/>
  <text x="19.05" y="38.5" fill="#888" font-family="monospace" font-size="1.6" text-anchor="middle">BP3 R</text>
  <text x="30.48" y="28.0" fill="#888" font-family="monospace" font-size="1.8" text-anchor="middle">BP3</text>
  <rect x="25.98" y="30.30" width="9" height="2.4" rx="1.2" fill="#222" stroke="#555" stroke-width="0.5"/>
  <rect x="26.48" y="30.10" width="3.5" height="2.8" rx="0.8" fill="#666" stroke="#888" stroke-width="0.3"/>
  <text x="24.075" y="35.5" fill="#888" font-family="monospace" font-size="1.6" text-anchor="middle">1×</text>
  <text x="33.075" y="35.5" fill="#888" font-family="monospace" font-size="1.6" text-anchor="middle">5×</text>

  <!-- ════════════════════════════════════════════════════════════════════════ -->
  <!-- Zone 0b — LFO                                                            -->
  <!-- ════════════════════════════════════════════════════════════════════════ -->

  <circle cx="7.62" cy="51.5" r="3.5" fill="none" stroke="#555" stroke-width="0.6"/>
  <circle cx="7.62" cy="51.5" r="1.4" fill="#333" stroke="#666" stroke-width="0.4"/>
  <rect x="4.12" y="56.74" width="7.0" height="2.26" rx="0.6" fill="none" stroke="#888" stroke-width="0.3"/>
  <text x="7.62" y="58.5" fill="#888" font-family="monospace" font-size="1.6" text-anchor="middle">LFO 1</text>
  <circle cx="19.05" cy="51.5" r="1.2" fill="#112244" stroke="#2255cc" stroke-width="0.4"/>
  <circle cx="30.48" cy="51.5" r="4.5" fill="#1a1a1a" stroke="#555" stroke-width="0.6"/>
  <line x1="30.48" y1="51.5" x2="30.48" y2="47.0" stroke="#aaa" stroke-width="0.6"/>
  <text x="30.48" y="59.0" fill="#999" font-family="monospace" font-size="1.8" text-anchor="middle">Rate 1</text>
  <circle cx="7.62" cy="65.9" r="3.5" fill="none" stroke="#555" stroke-width="0.6"/>
  <circle cx="7.62" cy="65.9" r="1.4" fill="#333" stroke="#666" stroke-width="0.4"/>
  <rect x="4.12" y="71.14" width="7.0" height="2.26" rx="0.6" fill="none" stroke="#888" stroke-width="0.3"/>
  <text x="7.62" y="72.9" fill="#888" font-family="monospace" font-size="1.6" text-anchor="middle">LFO 2</text>
  <circle cx="19.05" cy="65.9" r="1.2" fill="#112244" stroke="#2255cc" stroke-width="0.4"/>
  <circle cx="30.48" cy="65.9" r="4.5" fill="#1a1a1a" stroke="#555" stroke-width="0.6"/>
  <line x1="30.48" y1="65.9" x2="30.48" y2="61.400000000000006" stroke="#aaa" stroke-width="0.6"/>
  <text x="30.48" y="73.4" fill="#999" font-family="monospace" font-size="1.8" text-anchor="middle">Rate 2</text>

  <!-- ════════════════════════════════════════════════════════════════════════ -->
  <!-- Zone 0c — MOD BUS                                                        -->
  <!-- ════════════════════════════════════════════════════════════════════════ -->

  <circle cx="7.62" cy="83.0" r="2.5" fill="#1a1a1a" stroke="#555" stroke-width="0.5"/>
  <line x1="7.62" y1="83.0" x2="7.62" y2="80.5" stroke="#aaa" stroke-width="0.5"/>
  <text x="7.62" y="88.5" fill="#999" font-family="monospace" font-size="1.8" text-anchor="middle">SCALE</text>
  <circle cx="30.48" cy="83.0" r="2.5" fill="#1a1a1a" stroke="#555" stroke-width="0.5"/>
  <line x1="30.48" y1="83.0" x2="30.48" y2="80.5" stroke="#aaa" stroke-width="0.5"/>
  <text x="30.48" y="88.5" fill="#999" font-family="monospace" font-size="1.8" text-anchor="middle">VCA AMT</text>
  <circle cx="19.05" cy="83.0" r="1.2" fill="#441111" stroke="#cc2222" stroke-width="0.4"/>
  <text x="19.05" y="88.5" fill="#888" font-family="monospace" font-size="1.8" text-anchor="middle">CLIP</text>
  <circle cx="7.62" cy="96.34" r="2.5" fill="#1a1a1a" stroke="#555" stroke-width="0.5"/>
  <line x1="7.62" y1="96.34" x2="7.62" y2="93.84" stroke="#aaa" stroke-width="0.5"/>
  <text x="7.62" y="101.8" fill="#999" font-family="monospace" font-size="1.8" text-anchor="middle">OFFSET</text>
  <circle cx="30.48" cy="96.34" r="2.5" fill="#1a1a1a" stroke="#555" stroke-width="0.5"/>
  <line x1="30.48" y1="96.34" x2="30.48" y2="93.84" stroke="#aaa" stroke-width="0.5"/>
  <text x="30.48" y="101.8" fill="#999" font-family="monospace" font-size="1.8" text-anchor="middle">VCA OFS</text>
  <circle cx="19.05" cy="96.34" r="1.2" fill="#112244" stroke="#2255cc" stroke-width="0.4"/>
  <text x="19.05" y="101.8" fill="#888" font-family="monospace" font-size="1.8" text-anchor="middle">POS</text>
  <circle cx="7.62" cy="112.0" r="3.5" fill="none" stroke="#555" stroke-width="0.6"/>
  <circle cx="7.62" cy="112.0" r="1.4" fill="#333" stroke="#666" stroke-width="0.4"/>
  <text x="7.62" y="119.0" fill="#888" font-family="monospace" font-size="1.6" text-anchor="middle">MOD IN</text>
  <circle cx="19.05" cy="112.0" r="1.2" fill="#441111" stroke="#cc2222" stroke-width="0.4"/>
  <text x="19.05" y="119.0" fill="#888" font-family="monospace" font-size="1.8" text-anchor="middle">NEG</text>
  <circle cx="30.48" cy="112.0" r="3.5" fill="none" stroke="#555" stroke-width="0.6"/>
  <circle cx="30.48" cy="112.0" r="1.4" fill="#333" stroke="#666" stroke-width="0.4"/>
  <text x="30.48" y="119.0" fill="#888" font-family="monospace" font-size="1.6" text-anchor="middle">VCA IN</text>

  <!-- ════════════════════════════════════════════════════════════════════════ -->
  <!-- Zone — LP1 Low-Pass Filter                                               -->
  <!-- ════════════════════════════════════════════════════════════════════════ -->

  <circle cx="53.34" cy="24.8" r="9.0" fill="#1a1a1a" stroke="#555" stroke-width="0.7"/>
  <line x1="53.34" y1="24.8" x2="53.34" y2="15.8" stroke="#aaa" stroke-width="0.8"/>
  <text x="53.34" y="36.8" fill="#999" font-family="monospace" font-size="1.8" text-anchor="middle">FREQ</text>
  <circle cx="53.34" cy="52.4" r="7.0" fill="#1a1a1a" stroke="#555" stroke-width="0.6"/>
  <line x1="53.34" y1="52.4" x2="53.34" y2="45.4" stroke="#aaa" stroke-width="0.7"/>
  <text x="53.34" y="62.4" fill="#999" font-family="monospace" font-size="1.8" text-anchor="middle">TILT</text>
  <circle cx="53.34" cy="78.0" r="7.0" fill="#1a1a1a" stroke="#555" stroke-width="0.6"/>
  <line x1="53.34" y1="78.0" x2="53.34" y2="71.0" stroke="#aaa" stroke-width="0.7"/>
  <text x="53.34" y="88.0" fill="#999" font-family="monospace" font-size="1.8" text-anchor="middle">RES</text>
  <circle cx="41.91" cy="100.0" r="2.5" fill="#1a1a1a" stroke="#555" stroke-width="0.5"/>
  <line x1="41.91" y1="100.0" x2="41.91" y2="97.5" stroke="#aaa" stroke-width="0.5"/>
  <text x="41.91" y="105.5" fill="#999" font-family="monospace" font-size="1.8" text-anchor="middle"></text>
  <circle cx="53.34" cy="100.0" r="2.5" fill="#1a1a1a" stroke="#555" stroke-width="0.5"/>
  <line x1="53.34" y1="100.0" x2="53.34" y2="97.5" stroke="#aaa" stroke-width="0.5"/>
  <text x="53.34" y="105.5" fill="#999" font-family="monospace" font-size="1.8" text-anchor="middle"></text>
  <circle cx="64.77" cy="100.0" r="2.5" fill="#1a1a1a" stroke="#555" stroke-width="0.5"/>
  <line x1="64.77" y1="100.0" x2="64.77" y2="97.5" stroke="#aaa" stroke-width="0.5"/>
  <text x="64.77" y="105.5" fill="#999" font-family="monospace" font-size="1.8" text-anchor="middle"></text>
  <circle cx="41.91" cy="112.0" r="3.5" fill="none" stroke="#555" stroke-width="0.6"/>
  <circle cx="41.91" cy="112.0" r="1.4" fill="#333" stroke="#666" stroke-width="0.4"/>
  <text x="41.91" y="119.0" fill="#888" font-family="monospace" font-size="1.8" text-anchor="middle">FREQ</text>
  <circle cx="53.34" cy="112.0" r="3.5" fill="none" stroke="#555" stroke-width="0.6"/>
  <circle cx="53.34" cy="112.0" r="1.4" fill="#333" stroke="#666" stroke-width="0.4"/>
  <text x="53.34" y="119.0" fill="#888" font-family="monospace" font-size="1.8" text-anchor="middle">TILT</text>
  <circle cx="64.77" cy="112.0" r="3.5" fill="none" stroke="#555" stroke-width="0.6"/>
  <circle cx="64.77" cy="112.0" r="1.4" fill="#333" stroke="#666" stroke-width="0.4"/>
  <text x="64.77" y="119.0" fill="#888" font-family="monospace" font-size="1.8" text-anchor="middle">RES</text>

  <!-- ════════════════════════════════════════════════════════════════════════ -->
  <!-- Zone — BP CONTROL                                                        -->
  <!-- ════════════════════════════════════════════════════════════════════════ -->

  <circle cx="81.915" cy="24.8" r="9.0" fill="#1a1a1a" stroke="#555" stroke-width="0.7"/>
  <line x1="81.915" y1="24.8" x2="81.915" y2="15.8" stroke="#aaa" stroke-width="0.8"/>
  <text x="81.915" y="36.8" fill="#999" font-family="monospace" font-size="1.8" text-anchor="middle">OFFSET</text>
  <circle cx="81.915" cy="52.4" r="7.0" fill="#1a1a1a" stroke="#555" stroke-width="0.6"/>
  <line x1="81.915" y1="52.4" x2="81.915" y2="45.4" stroke="#aaa" stroke-width="0.7"/>
  <text x="81.915" y="62.4" fill="#999" font-family="monospace" font-size="1.8" text-anchor="middle">MIX</text>
  <text x="81.915" y="67.5" fill="#888" font-family="monospace" font-size="1.8" text-anchor="middle"></text>
  <rect x="77.42" y="69.80" width="9" height="2.4" rx="1.2" fill="#222" stroke="#555" stroke-width="0.5"/>
  <rect x="77.92" y="69.60" width="3.5" height="2.8" rx="0.8" fill="#666" stroke="#888" stroke-width="0.3"/>
  <text x="75.51" y="75.0" fill="#888" font-family="monospace" font-size="1.6" text-anchor="middle">POS</text>
  <text x="84.51" y="75.0" fill="#888" font-family="monospace" font-size="1.6" text-anchor="middle">NEG</text>
  <rect x="75.92" y="83.80" width="12" height="2.4" rx="1.2" fill="#222" stroke="#555" stroke-width="0.5"/>
  <rect x="80.17" y="83.60" width="3.5" height="2.8" rx="0.8" fill="#666" stroke="#888" stroke-width="0.3"/>
  <text x="74.3" y="90.3" fill="#888" font-family="monospace" font-size="1.6" text-anchor="middle">SOFT</text>
  <text x="80.01" y="90.3" fill="#888" font-family="monospace" font-size="1.6" text-anchor="middle">HARD</text>
  <text x="85.72" y="90.3" fill="#888" font-family="monospace" font-size="1.6" text-anchor="middle">FOLD</text>
  <text x="81.915" y="93.8" fill="#999" font-family="monospace" font-size="1.8" text-anchor="middle"></text>
  <circle cx="76.2" cy="100.0" r="2.5" fill="#1a1a1a" stroke="#555" stroke-width="0.5"/>
  <line x1="76.2" y1="100.0" x2="76.2" y2="97.5" stroke="#aaa" stroke-width="0.5"/>
  <text x="76.2" y="105.5" fill="#999" font-family="monospace" font-size="1.8" text-anchor="middle"></text>
  <circle cx="87.63" cy="100.0" r="2.5" fill="#1a1a1a" stroke="#555" stroke-width="0.5"/>
  <line x1="87.63" y1="100.0" x2="87.63" y2="97.5" stroke="#aaa" stroke-width="0.5"/>
  <text x="87.63" y="105.5" fill="#999" font-family="monospace" font-size="1.8" text-anchor="middle"></text>
  <circle cx="76.2" cy="112.0" r="3.5" fill="none" stroke="#555" stroke-width="0.6"/>
  <circle cx="76.2" cy="112.0" r="1.4" fill="#333" stroke="#666" stroke-width="0.4"/>
  <text x="76.2" y="119.0" fill="#888" font-family="monospace" font-size="1.8" text-anchor="middle">FREQ</text>
  <circle cx="87.63" cy="112.0" r="3.5" fill="none" stroke="#555" stroke-width="0.6"/>
  <circle cx="87.63" cy="112.0" r="1.4" fill="#333" stroke="#666" stroke-width="0.4"/>
  <text x="87.63" y="119.0" fill="#888" font-family="monospace" font-size="1.8" text-anchor="middle">TILT</text>

  <!-- ════════════════════════════════════════════════════════════════════════ -->
  <!-- Zone — BP 1                                                              -->
  <!-- ════════════════════════════════════════════════════════════════════════ -->

  <circle cx="110.49" cy="24.8" r="9.0" fill="#1a1a1a" stroke="#555" stroke-width="0.7"/>
  <line x1="110.49" y1="24.8" x2="110.49" y2="15.8" stroke="#aaa" stroke-width="0.8"/>
  <text x="110.49" y="36.8" fill="#999" font-family="monospace" font-size="1.8" text-anchor="middle">FREQ</text>
  <circle cx="110.49" cy="52.4" r="7.0" fill="#1a1a1a" stroke="#555" stroke-width="0.6"/>
  <line x1="110.49" y1="52.4" x2="110.49" y2="45.4" stroke="#aaa" stroke-width="0.7"/>
  <text x="110.49" y="62.4" fill="#999" font-family="monospace" font-size="1.8" text-anchor="middle">FOCUS</text>
  <circle cx="110.49" cy="78.0" r="7.0" fill="#1a1a1a" stroke="#555" stroke-width="0.6"/>
  <line x1="110.49" y1="78.0" x2="110.49" y2="71.0" stroke="#aaa" stroke-width="0.7"/>
  <text x="110.49" y="88.0" fill="#999" font-family="monospace" font-size="1.8" text-anchor="middle">DIST</text>
  <circle cx="99.06" cy="100.0" r="2.5" fill="#1a1a1a" stroke="#555" stroke-width="0.5"/>
  <line x1="99.06" y1="100.0" x2="99.06" y2="97.5" stroke="#aaa" stroke-width="0.5"/>
  <text x="99.06" y="105.5" fill="#999" font-family="monospace" font-size="1.8" text-anchor="middle"></text>
  <circle cx="110.49" cy="100.0" r="2.5" fill="#1a1a1a" stroke="#555" stroke-width="0.5"/>
  <line x1="110.49" y1="100.0" x2="110.49" y2="97.5" stroke="#aaa" stroke-width="0.5"/>
  <text x="110.49" y="105.5" fill="#999" font-family="monospace" font-size="1.8" text-anchor="middle"></text>
  <circle cx="121.92" cy="100.0" r="2.5" fill="#1a1a1a" stroke="#555" stroke-width="0.5"/>
  <line x1="121.92" y1="100.0" x2="121.92" y2="97.5" stroke="#aaa" stroke-width="0.5"/>
  <text x="121.92" y="105.5" fill="#999" font-family="monospace" font-size="1.8" text-anchor="middle"></text>
  <circle cx="99.06" cy="112.0" r="3.5" fill="none" stroke="#555" stroke-width="0.6"/>
  <circle cx="99.06" cy="112.0" r="1.4" fill="#333" stroke="#666" stroke-width="0.4"/>
  <text x="99.06" y="119.0" fill="#888" font-family="monospace" font-size="1.8" text-anchor="middle">FREQ</text>
  <circle cx="110.49" cy="112.0" r="3.5" fill="none" stroke="#555" stroke-width="0.6"/>
  <circle cx="110.49" cy="112.0" r="1.4" fill="#333" stroke="#666" stroke-width="0.4"/>
  <text x="110.49" y="119.0" fill="#888" font-family="monospace" font-size="1.8" text-anchor="middle">FOCUS</text>
  <circle cx="121.92" cy="112.0" r="3.5" fill="none" stroke="#555" stroke-width="0.6"/>
  <circle cx="121.92" cy="112.0" r="1.4" fill="#333" stroke="#666" stroke-width="0.4"/>
  <text x="121.92" y="119.0" fill="#888" font-family="monospace" font-size="1.8" text-anchor="middle">DIST</text>

  <!-- ════════════════════════════════════════════════════════════════════════ -->
  <!-- Zone — BP 2                                                              -->
  <!-- ════════════════════════════════════════════════════════════════════════ -->

  <circle cx="144.78" cy="24.8" r="9.0" fill="#1a1a1a" stroke="#555" stroke-width="0.7"/>
  <line x1="144.78" y1="24.8" x2="144.78" y2="15.8" stroke="#aaa" stroke-width="0.8"/>
  <text x="144.78" y="36.8" fill="#999" font-family="monospace" font-size="1.8" text-anchor="middle">FREQ</text>
  <circle cx="144.78" cy="52.4" r="7.0" fill="#1a1a1a" stroke="#555" stroke-width="0.6"/>
  <line x1="144.78" y1="52.4" x2="144.78" y2="45.4" stroke="#aaa" stroke-width="0.7"/>
  <text x="144.78" y="62.4" fill="#999" font-family="monospace" font-size="1.8" text-anchor="middle">FOCUS</text>
  <circle cx="144.78" cy="78.0" r="7.0" fill="#1a1a1a" stroke="#555" stroke-width="0.6"/>
  <line x1="144.78" y1="78.0" x2="144.78" y2="71.0" stroke="#aaa" stroke-width="0.7"/>
  <text x="144.78" y="88.0" fill="#999" font-family="monospace" font-size="1.8" text-anchor="middle">DIST</text>
  <circle cx="133.35" cy="100.0" r="2.5" fill="#1a1a1a" stroke="#555" stroke-width="0.5"/>
  <line x1="133.35" y1="100.0" x2="133.35" y2="97.5" stroke="#aaa" stroke-width="0.5"/>
  <text x="133.35" y="105.5" fill="#999" font-family="monospace" font-size="1.8" text-anchor="middle"></text>
  <circle cx="144.78" cy="100.0" r="2.5" fill="#1a1a1a" stroke="#555" stroke-width="0.5"/>
  <line x1="144.78" y1="100.0" x2="144.78" y2="97.5" stroke="#aaa" stroke-width="0.5"/>
  <text x="144.78" y="105.5" fill="#999" font-family="monospace" font-size="1.8" text-anchor="middle"></text>
  <circle cx="156.21" cy="100.0" r="2.5" fill="#1a1a1a" stroke="#555" stroke-width="0.5"/>
  <line x1="156.21" y1="100.0" x2="156.21" y2="97.5" stroke="#aaa" stroke-width="0.5"/>
  <text x="156.21" y="105.5" fill="#999" font-family="monospace" font-size="1.8" text-anchor="middle"></text>
  <circle cx="133.35" cy="112.0" r="3.5" fill="none" stroke="#555" stroke-width="0.6"/>
  <circle cx="133.35" cy="112.0" r="1.4" fill="#333" stroke="#666" stroke-width="0.4"/>
  <text x="133.35" y="119.0" fill="#888" font-family="monospace" font-size="1.8" text-anchor="middle">FREQ</text>
  <circle cx="144.78" cy="112.0" r="3.5" fill="none" stroke="#555" stroke-width="0.6"/>
  <circle cx="144.78" cy="112.0" r="1.4" fill="#333" stroke="#666" stroke-width="0.4"/>
  <text x="144.78" y="119.0" fill="#888" font-family="monospace" font-size="1.8" text-anchor="middle">FOCUS</text>
  <circle cx="156.21" cy="112.0" r="3.5" fill="none" stroke="#555" stroke-width="0.6"/>
  <circle cx="156.21" cy="112.0" r="1.4" fill="#333" stroke="#666" stroke-width="0.4"/>
  <text x="156.21" y="119.0" fill="#888" font-family="monospace" font-size="1.8" text-anchor="middle">DIST</text>

  <!-- ════════════════════════════════════════════════════════════════════════ -->
  <!-- Zone — BP 3                                                              -->
  <!-- ════════════════════════════════════════════════════════════════════════ -->

  <circle cx="179.07000000000002" cy="24.8" r="9.0" fill="#1a1a1a" stroke="#555" stroke-width="0.7"/>
  <line x1="179.07000000000002" y1="24.8" x2="179.07000000000002" y2="15.8" stroke="#aaa" stroke-width="0.8"/>
  <text x="179.07000000000002" y="36.8" fill="#999" font-family="monospace" font-size="1.8" text-anchor="middle">FREQ</text>
  <circle cx="179.07000000000002" cy="52.4" r="7.0" fill="#1a1a1a" stroke="#555" stroke-width="0.6"/>
  <line x1="179.07000000000002" y1="52.4" x2="179.07000000000002" y2="45.4" stroke="#aaa" stroke-width="0.7"/>
  <text x="179.07000000000002" y="62.4" fill="#999" font-family="monospace" font-size="1.8" text-anchor="middle">FOCUS</text>
  <circle cx="179.07000000000002" cy="78.0" r="7.0" fill="#1a1a1a" stroke="#555" stroke-width="0.6"/>
  <line x1="179.07000000000002" y1="78.0" x2="179.07000000000002" y2="71.0" stroke="#aaa" stroke-width="0.7"/>
  <text x="179.07000000000002" y="88.0" fill="#999" font-family="monospace" font-size="1.8" text-anchor="middle">DIST</text>
  <circle cx="167.64000000000001" cy="100.0" r="2.5" fill="#1a1a1a" stroke="#555" stroke-width="0.5"/>
  <line x1="167.64000000000001" y1="100.0" x2="167.64000000000001" y2="97.5" stroke="#aaa" stroke-width="0.5"/>
  <text x="167.64000000000001" y="105.5" fill="#999" font-family="monospace" font-size="1.8" text-anchor="middle"></text>
  <circle cx="179.07000000000002" cy="100.0" r="2.5" fill="#1a1a1a" stroke="#555" stroke-width="0.5"/>
  <line x1="179.07000000000002" y1="100.0" x2="179.07000000000002" y2="97.5" stroke="#aaa" stroke-width="0.5"/>
  <text x="179.07000000000002" y="105.5" fill="#999" font-family="monospace" font-size="1.8" text-anchor="middle"></text>
  <circle cx="190.5" cy="100.0" r="2.5" fill="#1a1a1a" stroke="#555" stroke-width="0.5"/>
  <line x1="190.5" y1="100.0" x2="190.5" y2="97.5" stroke="#aaa" stroke-width="0.5"/>
  <text x="190.5" y="105.5" fill="#999" font-family="monospace" font-size="1.8" text-anchor="middle"></text>
  <circle cx="167.64000000000001" cy="112.0" r="3.5" fill="none" stroke="#555" stroke-width="0.6"/>
  <circle cx="167.64000000000001" cy="112.0" r="1.4" fill="#333" stroke="#666" stroke-width="0.4"/>
  <text x="167.64000000000001" y="119.0" fill="#888" font-family="monospace" font-size="1.8" text-anchor="middle">FREQ</text>
  <circle cx="179.07000000000002" cy="112.0" r="3.5" fill="none" stroke="#555" stroke-width="0.6"/>
  <circle cx="179.07000000000002" cy="112.0" r="1.4" fill="#333" stroke="#666" stroke-width="0.4"/>
  <text x="179.07000000000002" y="119.0" fill="#888" font-family="monospace" font-size="1.8" text-anchor="middle">FOCUS</text>
  <circle cx="190.5" cy="112.0" r="3.5" fill="none" stroke="#555" stroke-width="0.6"/>
  <circle cx="190.5" cy="112.0" r="1.4" fill="#333" stroke="#666" stroke-width="0.4"/>
  <text x="190.5" y="119.0" fill="#888" font-family="monospace" font-size="1.8" text-anchor="middle">DIST</text>

  <!-- ════════════════════════════════════════════════════════════════════════ -->
  <!-- Zone — BP3 OUT                                                           -->
  <!-- ════════════════════════════════════════════════════════════════════════ -->

  <circle cx="201.93" cy="17.0" r="3.5" fill="none" stroke="#555" stroke-width="0.6"/>
  <circle cx="201.93" cy="17.0" r="1.4" fill="#333" stroke="#666" stroke-width="0.4"/>
  <rect x="198.43" y="22.24" width="7.0" height="2.26" rx="0.6" fill="none" stroke="#888" stroke-width="0.3"/>
  <text x="201.93" y="24.0" fill="#888" font-family="monospace" font-size="1.6" text-anchor="middle">BP3 L</text>
  <circle cx="213.36" cy="17.0" r="3.5" fill="none" stroke="#555" stroke-width="0.6"/>
  <circle cx="213.36" cy="17.0" r="1.4" fill="#333" stroke="#666" stroke-width="0.4"/>
  <rect x="209.86" y="22.24" width="7.0" height="2.26" rx="0.6" fill="none" stroke="#888" stroke-width="0.3"/>
  <text x="213.36" y="24.0" fill="#888" font-family="monospace" font-size="1.6" text-anchor="middle">BP3 R</text>

  <!-- ════════════════════════════════════════════════════════════════════════ -->
  <!-- Zone — HP                                                                -->
  <!-- ════════════════════════════════════════════════════════════════════════ -->

  <rect x="206.40" y="30.00" width="2.5" height="48.0" rx="1.2" fill="#1a1a1a" stroke="#555" stroke-width="0.4"/>
  <line x1="204.15" y1="31.50" x2="211.15" y2="31.50" stroke="#555" stroke-width="0.5"/>
  <line x1="204.15" y1="76.50" x2="211.15" y2="76.50" stroke="#555" stroke-width="0.5"/>
  <line x1="205.65" y1="54.00" x2="209.65" y2="54.00" stroke="#aaa" stroke-width="0.35"/>
  <rect x="203.15" y="51.75" width="9.0" height="4.5" rx="1.8" fill="#666" stroke="#888" stroke-width="0.35"/>
  <line x1="204.15" y1="54.00" x2="211.15" y2="54.00" stroke="#aaa" stroke-width="0.6"/>
  <text x="207.645" y="26.5" fill="#888" font-family="monospace" font-size="1.8" text-anchor="middle">FREQ</text>
  <circle cx="207.645" cy="89.5" r="4.5" fill="#1a1a1a" stroke="#555" stroke-width="0.6"/>
  <line x1="207.645" y1="89.5" x2="207.645" y2="85.0" stroke="#aaa" stroke-width="0.6"/>
  <text x="207.645" y="97.0" fill="#999" font-family="monospace" font-size="1.8" text-anchor="middle">RES</text>
  <circle cx="201.93" cy="100.0" r="2.5" fill="#1a1a1a" stroke="#555" stroke-width="0.5"/>
  <line x1="201.93" y1="100.0" x2="201.93" y2="97.5" stroke="#aaa" stroke-width="0.5"/>
  <text x="201.93" y="105.5" fill="#999" font-family="monospace" font-size="1.8" text-anchor="middle"></text>
  <circle cx="213.36" cy="100.0" r="2.5" fill="#1a1a1a" stroke="#555" stroke-width="0.5"/>
  <line x1="213.36" y1="100.0" x2="213.36" y2="97.5" stroke="#aaa" stroke-width="0.5"/>
  <text x="213.36" y="105.5" fill="#999" font-family="monospace" font-size="1.8" text-anchor="middle"></text>
  <circle cx="201.93" cy="112.0" r="3.5" fill="none" stroke="#555" stroke-width="0.6"/>
  <circle cx="201.93" cy="112.0" r="1.4" fill="#333" stroke="#666" stroke-width="0.4"/>
  <text x="201.93" y="119.0" fill="#888" font-family="monospace" font-size="1.8" text-anchor="middle">FREQ</text>
  <circle cx="213.36" cy="112.0" r="3.5" fill="none" stroke="#555" stroke-width="0.6"/>
  <circle cx="213.36" cy="112.0" r="1.4" fill="#333" stroke="#666" stroke-width="0.4"/>
  <text x="213.36" y="119.0" fill="#888" font-family="monospace" font-size="1.8" text-anchor="middle">RES</text>

  <!-- ════════════════════════════════════════════════════════════════════════ -->
  <!-- Zone — MAIN OUT                                                          -->
  <!-- ════════════════════════════════════════════════════════════════════════ -->

  <circle cx="224.79" cy="17.0" r="3.5" fill="none" stroke="#555" stroke-width="0.6"/>
  <circle cx="224.79" cy="17.0" r="1.4" fill="#333" stroke="#666" stroke-width="0.4"/>
  <rect x="221.29" y="22.24" width="7.0" height="2.26" rx="0.6" fill="none" stroke="#888" stroke-width="0.3"/>
  <text x="224.79" y="24.0" fill="#888" font-family="monospace" font-size="1.6" text-anchor="middle">MAIN L</text>
  <circle cx="236.22" cy="17.0" r="3.5" fill="none" stroke="#555" stroke-width="0.6"/>
  <circle cx="236.22" cy="17.0" r="1.4" fill="#333" stroke="#666" stroke-width="0.4"/>
  <rect x="232.72" y="22.24" width="7.0" height="2.26" rx="0.6" fill="none" stroke="#888" stroke-width="0.3"/>
  <text x="236.22" y="24.0" fill="#888" font-family="monospace" font-size="1.6" text-anchor="middle">MAIN R</text>

  <!-- ════════════════════════════════════════════════════════════════════════ -->
  <!-- Zone — LP2                                                               -->
  <!-- ════════════════════════════════════════════════════════════════════════ -->

  <rect x="229.25" y="30.00" width="2.5" height="48.0" rx="1.2" fill="#1a1a1a" stroke="#555" stroke-width="0.4"/>
  <line x1="227.00" y1="31.50" x2="234.00" y2="31.50" stroke="#555" stroke-width="0.5"/>
  <line x1="227.00" y1="76.50" x2="234.00" y2="76.50" stroke="#555" stroke-width="0.5"/>
  <line x1="228.50" y1="54.00" x2="232.50" y2="54.00" stroke="#aaa" stroke-width="0.35"/>
  <rect x="226.00" y="51.75" width="9.0" height="4.5" rx="1.8" fill="#666" stroke="#888" stroke-width="0.35"/>
  <line x1="227.00" y1="54.00" x2="234.00" y2="54.00" stroke="#aaa" stroke-width="0.6"/>
  <text x="230.505" y="26.5" fill="#888" font-family="monospace" font-size="1.8" text-anchor="middle">FREQ</text>
  <circle cx="230.505" cy="89.5" r="4.5" fill="#1a1a1a" stroke="#555" stroke-width="0.6"/>
  <line x1="230.505" y1="89.5" x2="230.505" y2="85.0" stroke="#aaa" stroke-width="0.6"/>
  <text x="230.505" y="97.0" fill="#999" font-family="monospace" font-size="1.8" text-anchor="middle">RES</text>
  <circle cx="224.79" cy="100.0" r="2.5" fill="#1a1a1a" stroke="#555" stroke-width="0.5"/>
  <line x1="224.79" y1="100.0" x2="224.79" y2="97.5" stroke="#aaa" stroke-width="0.5"/>
  <text x="224.79" y="105.5" fill="#999" font-family="monospace" font-size="1.8" text-anchor="middle"></text>
  <circle cx="236.22" cy="100.0" r="2.5" fill="#1a1a1a" stroke="#555" stroke-width="0.5"/>
  <line x1="236.22" y1="100.0" x2="236.22" y2="97.5" stroke="#aaa" stroke-width="0.5"/>
  <text x="236.22" y="105.5" fill="#999" font-family="monospace" font-size="1.8" text-anchor="middle"></text>
  <circle cx="224.79" cy="112.0" r="3.5" fill="none" stroke="#555" stroke-width="0.6"/>
  <circle cx="224.79" cy="112.0" r="1.4" fill="#333" stroke="#666" stroke-width="0.4"/>
  <text x="224.79" y="119.0" fill="#888" font-family="monospace" font-size="1.8" text-anchor="middle">FREQ</text>
  <circle cx="236.22" cy="112.0" r="3.5" fill="none" stroke="#555" stroke-width="0.6"/>
  <circle cx="236.22" cy="112.0" r="1.4" fill="#333" stroke="#666" stroke-width="0.4"/>
  <text x="236.22" y="119.0" fill="#888" font-family="monospace" font-size="1.8" text-anchor="middle">RES</text>

</svg>